<?xml version="1.0" encoding="UTF-8"?>
<svg width="24px" height="18px" viewBox="0 0 24 18" version="1.1" xmlns="http://www.w3.org/2000/svg" xmlns:xlink="http://www.w3.org/1999/xlink">
    <!-- Generator: Sketch 54.1 (76490) - https://sketchapp.com -->
    <title>car</title>
    <desc>Created with Sketch.</desc>
    <g id="Page-1" stroke="none" stroke-width="1" fill="none" fill-rule="evenodd">
        <g id="car" fill="#BABABA">
            <path d="M18.4827,16.1248 C18.9579,16.1248 19.3483,15.9601 19.6538,15.6307 C19.9593,15.3013 20.112,14.9111 20.112,14.4603 C20.112,14.0095 19.9593,13.6194 19.6538,13.29 C19.3483,12.9606 18.9579,12.7958 18.4827,12.7958 C18.0075,12.7958 17.6171,12.9606 17.3116,13.29 C17.0061,13.6194 16.8534,14.0095 16.8534,14.4603 C16.8534,14.9111 17.0061,15.3013 17.3116,15.6307 C17.6171,15.9601 18.0075,16.1248 18.4827,16.1248 Z M20.112,6.13784 L17.4134,6.13784 L17.4134,8.89467 L22.2505,8.89467 L20.112,6.13784 Z M5.44807,16.1248 C5.92329,16.1248 6.31365,15.9601 6.61914,15.6307 C6.92464,15.3013 7.07739,14.9111 7.07739,14.4603 C7.07739,14.0095 6.92464,13.6194 6.61914,13.29 C6.31365,12.9606 5.92329,12.7958 5.44807,12.7958 C4.97284,12.7958 4.58248,12.9606 4.27699,13.29 C3.97149,13.6194 3.81874,14.0095 3.81874,14.4603 C3.81874,14.9111 3.97149,15.3013 4.27699,15.6307 C4.58248,15.9601 4.97284,16.1248 5.44807,16.1248 Z M20.6721,4.47334 L23.9308,8.89467 L23.9308,14.4603 L21.7413,14.4603 C21.7413,15.3619 21.4189,16.1422 20.7739,16.801 C20.129,17.4599 19.3652,17.7893 18.4827,17.7893 C17.6001,17.7893 16.8364,17.4599 16.1914,16.801 C15.5465,16.1422 15.224,15.3619 15.224,14.4603 L8.70672,14.4603 C8.70672,15.3619 8.38425,16.1422 7.73931,16.801 C7.09436,17.4599 6.33062,17.7893 5.44807,17.7893 C4.56551,17.7893 3.80177,17.4599 3.15682,16.801 C2.51188,16.1422 2.18941,15.3619 2.18941,14.4603 L0,14.4603 L0,2.23667 C0,1.64716 0.220636,1.12701 0.661914,0.676203 C1.10319,0.2254 1.61235,0 2.18941,0 L17.4134,0 L17.4134,4.47334 L20.6721,4.47334 Z" id="Shape"></path>
        </g>
    </g>
</svg>