<svg width="17" height="17" viewBox="0 0 17 17" fill="none" xmlns="http://www.w3.org/2000/svg">
<path d="M7.2902 0.0119484C5.90103 0.213861 4.52677 0.750826 3.47266 1.49953C2.87167 1.92317 1.91614 2.8787 1.49249 3.47969C0.87185 4.35154 0.364527 5.51897 0.113322 6.65693C0.0198186 7.08548 0.00491231 7.29722 0 8.28239C0 9.28721 0.0147369 9.47438 0.113322 9.95223C0.748534 12.9127 2.83711 15.2772 5.64492 16.213C6.65973 16.5479 7.00935 16.6021 8.27537 16.6021C9.51175 16.607 9.77295 16.5725 10.7383 16.2771C13.6593 15.3905 15.8317 13.0014 16.4818 9.95223C16.5853 9.4793 16.6 9.2823 16.6 8.30695C16.6 7.10005 16.5655 6.82429 16.2701 5.86859C15.3835 2.95746 12.9944 0.780131 9.96995 0.125102C9.55122 0.0365112 9.27545 0.01178 8.44781 0.00195541C7.89103 -0.00295688 7.37388 0.00195442 7.2902 0.0119484ZM9.75313 1.11535C10.4525 1.26306 10.896 1.42076 11.5758 1.75564C12.9797 2.45014 14.1569 3.6274 14.8514 5.0313C15.4228 6.17908 15.605 6.98199 15.61 8.28239C15.6149 9.56806 15.4179 10.4252 14.8662 11.5482L14.5904 12.0999L14.3539 11.8784C13.8564 11.4103 12.7481 10.8193 11.497 10.3513L10.8764 10.1148L10.5315 10.4055C10.0833 10.7799 9.72857 10.9918 9.27545 11.1542C8.96021 11.2675 8.84198 11.2823 8.3001 11.2823C7.75822 11.2823 7.63999 11.2675 7.32476 11.1542C6.87164 10.9916 6.51694 10.7799 6.06873 10.4055L5.72385 10.1148L5.10321 10.3513C3.85209 10.8193 2.74378 11.4103 2.2412 11.8833L2.00473 12.105L1.73387 11.5484C0.645206 9.31194 0.71906 6.78516 1.94561 4.64729C2.54661 3.58827 3.58107 2.55381 4.6401 1.95281C5.43809 1.49479 6.46764 1.14499 7.37388 1.02185C7.93541 0.947826 9.17669 0.997118 9.75313 1.11535Z" fill="white"/>
<path d="M7.61051 2.9673C7.12286 3.0708 6.54663 3.37622 6.14757 3.74566C4.90143 4.89821 4.6748 6.66177 5.53678 8.42024C6.38893 10.1591 7.90608 10.9522 9.22116 10.3513C10.2507 9.88328 11.1274 8.70109 11.4624 7.3268C11.6003 6.77018 11.6052 5.96234 11.4821 5.47957C11.0042 3.67655 9.33939 2.59294 7.61051 2.9673Z" fill="white"/>
</svg>
