<?xml version="1.0" encoding="UTF-8"?>
<svg width="19px" height="19px" viewBox="0 0 19 19" version="1.1" xmlns="http://www.w3.org/2000/svg" xmlns:xlink="http://www.w3.org/1999/xlink">
    <!-- Generator: Sketch 54.1 (76490) - https://sketchapp.com -->
    <title>diachi</title>
    <desc>Created with Sketch.</desc>
    <g id="Page-1" stroke="none" stroke-width="1" fill="none" fill-rule="evenodd">
        <g id="diachi" fill="#FFFFFF">
            <rect id="Rectangle-Copy-2" opacity="0.00999999978" x="0" y="0" width="19" height="19"></rect>
            <path d="M9.69518921,0 C11.5524782,0 13.1326449,0.651538069 14.4357412,1.95463721 C15.7388403,3.25773348 16.3903784,4.83790022 16.3903784,6.69518921 C16.3903784,7.62383226 16.158222,8.6872634 15.6938976,9.88551427 C15.229576,11.0837651 14.6679063,12.2071075 14.0088682,13.2555759 C13.34983,14.3040444 12.698292,15.2850986 12.0542338,16.1987617 C11.4101728,17.1124288 10.8634801,17.8388572 10.4141357,18.3780697 C10.0559203,18.7586735 9.45698906,18.776823 9.07638525,18.4186076 C9.05333835,18.3969164 9.03139407,18.3740827 9.01063516,18.3501927 C8.99902873,18.3368773 8.98757146,18.3236966 8.97624271,18.3106685 C8.67668072,17.9661715 8.1374766,17.2771881 7.35861311,16.2436987 C6.57974962,15.2102074 5.89825736,14.2066875 5.31410902,13.2331074 C4.72996212,12.2595302 4.19824655,11.1586535 3.71894649,9.93044842 C3.23964643,8.70224337 3,7.62383226 3,6.69518921 C3,4.83790022 3.65153864,3.25773348 4.95463578,1.95463721 C6.25773348,0.651538069 7.83790022,0 9.69518921,0 Z M9.69518921,10.1461324 C10.6501727,10.1461324 11.464064,9.80972453 12.1368922,9.13689219 C12.8097245,8.46406402 13.1461324,7.65017275 13.1461324,6.69518921 C13.1461324,5.74020567 12.8097245,4.9263144 12.1368922,4.25348622 C11.464064,3.58065388 10.6501727,3.24424605 9.69518921,3.24424605 C8.74020567,3.24424605 7.9263144,3.58065388 7.25348622,4.25348622 C6.58065388,4.9263144 6.24424605,5.74020567 6.24424605,6.69518921 C6.24424605,7.65017275 6.58065388,8.46406402 7.25348622,9.13689219 C7.9263144,9.80972453 8.74020567,10.1461324 9.69518921,10.1461324 Z"></path>
        </g>
    </g>
</svg>