<svg width="18" height="18" viewBox="0 0 18 18" fill="none" xmlns="http://www.w3.org/2000/svg">
<path fill-rule="evenodd" clip-rule="evenodd" d="M16.9756 0C17.2358 0 17.4715 0.0978261 17.6829 0.293478C17.8943 0.48913 18 0.717389 18 0.978261V17.0217C18 17.2826 17.8943 17.5109 17.6829 17.7065C17.4715 17.9022 17.2358 18 16.9756 18H12.3902V11.0543H14.7317L15.0732 8.31522H12.3902V6.55435C12.3902 5.67391 12.8455 5.2337 13.7561 5.2337H15.1707V2.83696C14.6829 2.73913 13.9837 2.69022 13.0732 2.69022C12.0325 2.69022 11.1951 3.00815 10.561 3.64402C9.92682 4.2799 9.60976 5.16847 9.60976 6.30978V8.31522H7.26829V11.0543H9.60976V18H0.97561C0.715446 18 0.487806 17.9022 0.292683 17.7065C0.09756 17.5109 0 17.2826 0 17.0217V0.978261C0 0.717389 0.09756 0.48913 0.292683 0.293478C0.487806 0.0978261 0.715446 0 0.97561 0H16.9756Z" fill="white"/>
</svg>
