<svg width="20" height="19" viewBox="0 0 20 19" fill="none" xmlns="http://www.w3.org/2000/svg">
<path d="M14.7499 0.999993C13.755 0.997543 12.78 1.27836 11.9388 1.80962C11.0977 2.34087 10.4251 3.1006 9.99985 3.99999C9.49824 2.90973 8.63758 2.02469 7.56175 1.49282C6.48592 0.960957 5.26012 0.814504 4.08927 1.07795C2.91842 1.34139 1.87348 1.99876 1.12913 2.94016C0.384785 3.88156 -0.0138543 5.04995 -0.00014619 6.24999C-0.00014619 11.75 9.99985 19 9.99985 19C9.99985 19 19.9999 11.75 19.9999 6.24999C19.9999 4.85761 19.4467 3.52225 18.4622 2.53768C17.4776 1.55312 16.1422 0.999993 14.7499 0.999993Z" fill="#EBEBEB"/>
</svg>
