<svg width="18" height="18" viewBox="0 0 18 18" fill="none" xmlns="http://www.w3.org/2000/svg">
<path fill-rule="evenodd" clip-rule="evenodd" d="M18 2.25V15.7969C18 16.3906 17.7813 16.9062 17.3438 17.3438C16.9062 17.7813 16.375 18 15.75 18H2.25C1.625 18 1.09375 17.7813 0.65625 17.3438C0.218748 16.9062 0 16.3906 0 15.7969V2.25C0 1.625 0.218748 1.09375 0.65625 0.65625C1.09375 0.218748 1.625 0 2.25 0H15.75C16.375 0 16.9062 0.218748 17.3438 0.65625C17.7813 1.09375 18 1.625 18 2.25ZM11.625 6.375C10.9062 5.625 10.0313 5.25 9 5.25C7.96874 5.25 7.08594 5.61719 6.35156 6.35156C5.61719 7.08594 5.25 7.96874 5.25 9C5.25 10.0313 5.61719 10.9141 6.35156 11.6484C7.08594 12.3828 7.96874 12.75 9 12.75C10.0313 12.75 10.9141 12.3828 11.6484 11.6484C12.3828 10.9141 12.75 10.0313 12.75 9C12.75 7.96874 12.375 7.09376 11.625 6.375ZM16.5 4.5V2.25C16.5 1.75 16.25 1.5 15.75 1.5H13.5C13 1.5 12.75 1.75 12.75 2.25V4.5C12.75 5 13 5.25 13.5 5.25H15.75C16.25 5.25 16.5 5 16.5 4.5ZM15.7969 16.5C16.2656 16.5 16.5 16.25 16.5 15.75V7.5H14.0625C14.1875 7.90625 14.25 8.40625 14.25 9C14.25 10.4688 13.75 11.7031 12.75 12.7031C11.7187 13.7344 10.4688 14.25 9 14.25C7.56249 14.25 6.32813 13.7344 5.29688 12.7031C4.26562 11.6719 3.75 10.4375 3.75 9C3.75 8.53125 3.82812 8.03125 3.98438 7.5H1.5V15.75C1.5 15.9688 1.57812 16.1484 1.73438 16.2891C1.89063 16.4297 2.07812 16.5 2.29688 16.5H15.7969Z" fill="white"/>
</svg>
