<?xml version="1.0" encoding="UTF-8"?>
<svg width="24px" height="19px" viewBox="0 0 24 19" version="1.1" xmlns="http://www.w3.org/2000/svg" xmlns:xlink="http://www.w3.org/1999/xlink">
    <!-- Generator: Sketch 54.1 (76490) - https://sketchapp.com -->
    <title>lh</title>
    <desc>Created with Sketch.</desc>
    <g id="Page-1" stroke="none" stroke-width="1" fill="none" fill-rule="evenodd">
        <g id="lh" fill="#BABABA">
            <path d="M20.709312,12.165504 C20.646624,11.76384 20.474208,11.42016 20.19216,11.134368 C19.910112,10.848576 19.565376,10.65936 19.157952,10.566624 C17.606592,10.211328 16.568448,9.628128 16.04352,8.8171008 C15.518592,8.006064 15.224736,7.113936 15.162048,6.140688 C14.88,6.0789024 14.484384,6.0286944 13.975104,5.9900736 C13.465824,5.9514528 12.795936,5.9321376 11.96544,5.9321376 C11.134848,5.9321376 10.46496,5.9514528 9.95568,5.9900736 C9.4464288,6.0286944 9.0507648,6.0789024 8.7686976,6.140688 C8.7060192,7.113936 8.4122112,8.006064 7.887264,8.8171008 C7.3623168,9.628128 6.3241824,10.211328 4.7728416,10.566624 C4.3654176,10.65936 4.0206816,10.848576 3.7386144,11.134368 C3.4565568,11.42016 3.2841792,11.76384 3.2215008,12.165504 L2.6338752,16.243872 C2.5241856,16.954464 2.7043872,17.587872 3.1744896,18.144 C3.644592,18.700128 4.2478848,18.97824 4.9843872,18.97824 L18.946368,18.97824 C19.68288,18.97824 20.28624,18.700128 20.756256,18.144 C21.226368,17.587872 21.406656,16.954464 21.296928,16.243872 L20.709312,12.165504 Z M11.96544,15.988992 C11.1192,15.988992 10.402272,15.69936 9.814656,15.12 C9.2270496,14.54064 8.9332416,13.841664 8.9332416,13.02288 C8.9332416,12.204096 9.2270496,11.50512 9.814656,10.92576 C10.402272,10.346496 11.1192,10.056864 11.96544,10.056864 C12.811584,10.056864 13.528512,10.346496 14.116128,10.92576 C14.703744,11.50512 14.9976,12.204096 14.9976,13.02288 C14.9976,13.841664 14.703744,14.54064 14.116128,15.12 C13.528512,15.69936 12.811584,15.988992 11.96544,15.988992 Z M23.92944,4.7271744 C23.92944,4.2946176 23.651328,3.8002752 23.095008,3.2441376 C22.538784,2.688 21.739584,2.1704832 20.697504,1.6915872 C19.655424,1.2126912 18.39792,0.81103872 16.924992,0.48662208 C15.451968,0.16220544 13.798848,0 11.96544,0 C10.132032,0 8.478816,0.16220544 7.0058208,0.48662208 C5.5328256,0.81103872 4.2753216,1.2126912 3.2332608,1.6915872 C2.1911904,2.1704832 1.3920288,2.688 0.83573664,3.2441376 C0.2794464,3.8002752 0.00130585914,4.2946176 0.00130585914,4.7271744 C-0.0143642881,5.6231808 0.1109952,6.5153088 0.37738752,7.4035872 C0.64377984,8.2918656 1.5291264,8.643312 3.0334656,8.457936 C4.8041856,8.2262112 5.8031424,7.8168288 6.0303648,7.2297888 C6.2575776,6.6427584 6.371184,5.9089728 6.371184,5.0284128 C6.371184,4.4259264 6.9627264,4.0242816 8.1458208,3.8234496 C9.3289152,3.6226176 10.602048,3.5222112 11.96544,3.5222112 C13.328736,3.5222112 14.601888,3.6226176 15.784992,3.8234496 C16.968096,4.0242816 17.559648,4.4259264 17.559648,5.0284128 C17.559648,5.9089728 17.673216,6.6427584 17.900448,7.2297888 C18.12768,7.8168288 19.12656,8.2262112 20.897376,8.457936 C22.401696,8.643312 23.287008,8.2918656 23.553408,7.4035872 C23.819808,6.5153088 23.945184,5.6231808 23.92944,4.7271744 Z" id="Shape"></path>
        </g>
    </g>
</svg>