<?xml version="1.0" encoding="UTF-8"?>
<svg width="15px" height="16px" viewBox="0 0 15 16" version="1.1" xmlns="http://www.w3.org/2000/svg" xmlns:xlink="http://www.w3.org/1999/xlink">
    <!-- Generator: Sketch 54.1 (76490) - https://sketchapp.com -->
    <title>lich</title>
    <desc>Created with Sketch.</desc>
    <g id="Page-1" stroke="none" stroke-width="1" fill="none" fill-rule="evenodd">
        <g id="lich" fill="#F01A16" fill-rule="nonzero">
            <path d="M13.2413793,16 L1.10344828,16 C0.804596303,16 0.545978041,15.8908057 0.327586207,15.6724138 C0.109194306,15.454022 0,15.1954037 0,14.8965517 L0,2.75862069 C0,2.44827366 0.109194306,2.1867829 0.327586207,1.97413738 C0.545978041,1.76149407 0.804596303,1.65517241 1.10344828,1.65517241 L2.20689655,1.65517241 L2.20689655,2.20689655 C2.20689655,2.66666814 2.36781462,3.05746979 2.68965517,3.37931034 C3.01149572,3.7011509 3.40229738,3.86206897 3.86206897,3.86206897 C4.32184055,3.86206897 4.71264221,3.7011509 5.03448276,3.37931034 C5.35632331,3.05746979 5.51724138,2.66666814 5.51724138,2.20689655 L5.51724138,1.65517241 L8.82758621,1.65517241 L8.82758621,2.20689655 C8.82758621,2.66666814 8.98850428,3.05746979 9.31034483,3.37931034 C9.63218538,3.7011509 10.022987,3.86206897 10.4827586,3.86206897 C10.9425302,3.86206897 11.3333319,3.7011509 11.6551724,3.37931034 C11.977013,3.05746979 12.137931,2.66666814 12.137931,2.20689655 L12.137931,1.65517241 L13.2413793,1.65517241 C13.5402306,1.65517241 13.7988502,1.76149407 14.0172403,1.97413738 C14.2356326,2.1867829 14.3448276,2.44827366 14.3448276,2.75862069 L14.3448276,14.8965517 C14.3448276,15.1954037 14.2356326,15.454022 14.0172403,15.6724138 C13.7988502,15.8908057 13.5402306,16 13.2413793,16 Z M13.2413793,5.51724138 L1.10344828,5.51724138 L1.10344828,14.8965517 L13.2413793,14.8965517 L13.2413793,5.51724138 Z M3.86206897,8.27586207 L2.20689655,8.27586207 L2.20689655,6.62068966 L3.86206897,6.62068966 L3.86206897,8.27586207 Z M3.86206897,11.0344828 L2.20689655,11.0344828 L2.20689655,9.37931034 L3.86206897,9.37931034 L3.86206897,11.0344828 Z M3.86206897,13.7931034 L2.20689655,13.7931034 L2.20689655,12.137931 L3.86206897,12.137931 L3.86206897,13.7931034 Z M6.62068966,8.27586207 L4.96551724,8.27586207 L4.96551724,6.62068966 L6.62068966,6.62068966 L6.62068966,8.27586207 Z M6.62068966,11.0344828 L4.96551724,11.0344828 L4.96551724,9.37931034 L6.62068966,9.37931034 L6.62068966,11.0344828 Z M6.62068966,13.7931034 L4.96551724,13.7931034 L4.96551724,12.137931 L6.62068966,12.137931 L6.62068966,13.7931034 Z M9.37931034,8.27586207 L7.72413793,8.27586207 L7.72413793,6.62068966 L9.37931034,6.62068966 L9.37931034,8.27586207 Z M9.37931034,11.0344828 L7.72413793,11.0344828 L7.72413793,9.37931034 L9.37931034,9.37931034 L9.37931034,11.0344828 Z M9.37931034,13.7931034 L7.72413793,13.7931034 L7.72413793,12.137931 L9.37931034,12.137931 L9.37931034,13.7931034 Z M12.137931,8.27586207 L10.4827586,8.27586207 L10.4827586,6.62068966 L12.137931,6.62068966 L12.137931,8.27586207 Z M12.137931,11.0344828 L10.4827586,11.0344828 L10.4827586,9.37931034 L12.137931,9.37931034 L12.137931,11.0344828 Z M12.137931,13.7931034 L10.4827586,13.7931034 L10.4827586,12.137931 L12.137931,12.137931 L12.137931,13.7931034 Z M10.4655183,3.31034483 C10.1666648,3.31034483 9.91092083,3.20402317 9.69827531,2.99137986 C9.485632,2.77873434 9.37931034,2.52299034 9.37931034,2.22413683 L9.37931034,1.086208 C9.37931034,0.787354483 9.485632,0.531610483 9.69827531,0.318964966 C9.91092083,0.106321655 10.1666648,0 10.4655183,0 C10.7643697,0 11.0201137,0.106321655 11.2327592,0.318964966 C11.4454025,0.531610483 11.5517241,0.787354483 11.5517241,1.086208 L11.5517241,2.22413683 C11.5517241,2.52299034 11.4454025,2.77873434 11.2327592,2.99137986 C11.0201137,3.20402317 10.7643697,3.31034483 10.4655183,3.31034483 Z M3.84482869,3.31034483 C3.54597517,3.31034483 3.29023117,3.20402317 3.07758566,2.99137986 C2.86494234,2.77873434 2.75862069,2.52299034 2.75862069,2.22413683 L2.75862069,1.086208 C2.75862069,0.787354483 2.86494234,0.531610483 3.07758566,0.318964966 C3.29023117,0.106321655 3.54597517,0 3.84482869,0 C4.14368,0 4.399424,0.106321655 4.61206952,0.318964966 C4.82471283,0.531610483 4.93103448,0.787354483 4.93103448,1.086208 L4.93103448,2.22413683 C4.93103448,2.52299034 4.82471283,2.77873434 4.61206952,2.99137986 C4.399424,3.20402317 4.14368,3.31034483 3.84482869,3.31034483 Z"></path>
        </g>
    </g>
</svg>