<svg width="157" height="44" viewBox="0 0 157 44" fill="none" xmlns="http://www.w3.org/2000/svg">
<path d="M0 2C0 0.895431 0.895431 0 2 0H155C156.105 0 157 0.895431 157 2V42C157 43.1046 156.105 44 155 44H2C0.895426 44 0 43.1046 0 42V2Z" fill="#DF4C3A"/>
<path d="M76.5039 26.6943C76.1667 27.1774 75.695 27.5397 75.0889 27.7812C74.4873 28.0182 73.7855 28.1367 72.9834 28.1367C72.1722 28.1367 71.4521 27.9476 70.8232 27.5693C70.1943 27.1865 69.7067 26.6442 69.3604 25.9424C69.0186 25.2406 68.8431 24.4271 68.834 23.502V22.6338C68.834 21.1344 69.1826 19.9723 69.8799 19.1475C70.5817 18.3226 71.5661 17.9102 72.833 17.9102C73.8721 17.9102 74.7083 18.1768 75.3418 18.71C75.9753 19.2386 76.3626 19.9906 76.5039 20.9658H75.1914C74.9453 19.6488 74.1615 18.9902 72.8398 18.9902C71.9603 18.9902 71.2926 19.3001 70.8369 19.9199C70.3857 20.5352 70.1579 21.4284 70.1533 22.5996V23.4131C70.1533 24.5296 70.4085 25.4183 70.9189 26.0791C71.4294 26.7354 72.1198 27.0635 72.9902 27.0635C73.4824 27.0635 73.9131 27.0088 74.2822 26.8994C74.6514 26.79 74.9567 26.6055 75.1982 26.3457V24.1104H72.8945V23.0439H76.5039V26.6943Z" fill="white"/>
<path d="M78.165 24.2334C78.165 23.5088 78.3063 22.8571 78.5889 22.2783C78.876 21.6995 79.2725 21.2529 79.7783 20.9385C80.2887 20.624 80.8698 20.4668 81.5215 20.4668C82.5286 20.4668 83.3421 20.8154 83.9619 21.5127C84.5863 22.21 84.8984 23.1374 84.8984 24.2949V24.3838C84.8984 25.1038 84.7594 25.751 84.4814 26.3252C84.208 26.8949 83.8138 27.3392 83.2988 27.6582C82.7884 27.9772 82.2005 28.1367 81.5352 28.1367C80.5326 28.1367 79.7191 27.7881 79.0947 27.0908C78.4749 26.3936 78.165 25.4707 78.165 24.3223V24.2334ZM79.4365 24.3838C79.4365 25.2041 79.6257 25.8626 80.0039 26.3594C80.3867 26.8561 80.8971 27.1045 81.5352 27.1045C82.1777 27.1045 82.6882 26.8538 83.0664 26.3525C83.4447 25.8467 83.6338 25.1403 83.6338 24.2334C83.6338 23.4222 83.4401 22.766 83.0527 22.2646C82.6699 21.7588 82.1595 21.5059 81.5215 21.5059C80.8971 21.5059 80.3936 21.7542 80.0107 22.251C79.6279 22.7477 79.4365 23.4587 79.4365 24.3838Z" fill="white"/>
<path d="M86.1494 24.2334C86.1494 23.5088 86.2907 22.8571 86.5732 22.2783C86.8604 21.6995 87.2568 21.2529 87.7627 20.9385C88.2731 20.624 88.8542 20.4668 89.5059 20.4668C90.513 20.4668 91.3265 20.8154 91.9463 21.5127C92.5706 22.21 92.8828 23.1374 92.8828 24.2949V24.3838C92.8828 25.1038 92.7438 25.751 92.4658 26.3252C92.1924 26.8949 91.7982 27.3392 91.2832 27.6582C90.7728 27.9772 90.1849 28.1367 89.5195 28.1367C88.5169 28.1367 87.7035 27.7881 87.0791 27.0908C86.4593 26.3936 86.1494 25.4707 86.1494 24.3223V24.2334ZM87.4209 24.3838C87.4209 25.2041 87.61 25.8626 87.9883 26.3594C88.3711 26.8561 88.8815 27.1045 89.5195 27.1045C90.1621 27.1045 90.6725 26.8538 91.0508 26.3525C91.429 25.8467 91.6182 25.1403 91.6182 24.2334C91.6182 23.4222 91.4245 22.766 91.0371 22.2646C90.6543 21.7588 90.1439 21.5059 89.5059 21.5059C88.8815 21.5059 88.3779 21.7542 87.9951 22.251C87.6123 22.7477 87.4209 23.4587 87.4209 24.3838Z" fill="white"/>
<path d="M94.168 24.2402C94.168 23.0872 94.4346 22.1712 94.9678 21.4922C95.501 20.8086 96.2074 20.4668 97.0869 20.4668C97.9893 20.4668 98.6934 20.7858 99.1992 21.4238L99.2607 20.6035H100.416V27.8223C100.416 28.7793 100.131 29.5335 99.5615 30.085C98.9964 30.6364 98.2354 30.9121 97.2783 30.9121C96.7451 30.9121 96.2233 30.7982 95.7129 30.5703C95.2025 30.3424 94.8128 30.0303 94.5439 29.6338L95.2002 28.875C95.7425 29.5449 96.4056 29.8799 97.1895 29.8799C97.8047 29.8799 98.2832 29.7067 98.625 29.3604C98.9714 29.014 99.1445 28.5264 99.1445 27.8975V27.2617C98.6387 27.8451 97.9482 28.1367 97.0732 28.1367C96.2074 28.1367 95.5055 27.7881 94.9678 27.0908C94.4346 26.3936 94.168 25.4434 94.168 24.2402ZM95.4395 24.3838C95.4395 25.2178 95.6104 25.874 95.9521 26.3525C96.2939 26.8265 96.7725 27.0635 97.3877 27.0635C98.1852 27.0635 98.7708 26.7012 99.1445 25.9766V22.5996C98.7572 21.8932 98.1761 21.54 97.4014 21.54C96.7861 21.54 96.3053 21.7793 95.959 22.2578C95.6126 22.7363 95.4395 23.445 95.4395 24.3838Z" fill="white"/>
<path d="M103.704 28H102.439V17.5H103.704V28Z" fill="white"/>
<path d="M108.804 28.1367C107.801 28.1367 106.985 27.8086 106.356 27.1523C105.728 26.4915 105.413 25.6097 105.413 24.5068V24.2744C105.413 23.5407 105.552 22.8867 105.83 22.3125C106.113 21.7337 106.505 21.2826 107.006 20.959C107.512 20.6309 108.059 20.4668 108.646 20.4668C109.608 20.4668 110.355 20.7835 110.889 21.417C111.422 22.0505 111.688 22.9574 111.688 24.1377V24.6641H106.678C106.696 25.3932 106.908 25.9834 107.313 26.4346C107.724 26.8812 108.243 27.1045 108.872 27.1045C109.319 27.1045 109.697 27.0133 110.007 26.8311C110.317 26.6488 110.588 26.4072 110.82 26.1064L111.593 26.708C110.973 27.6605 110.043 28.1367 108.804 28.1367ZM108.646 21.5059C108.136 21.5059 107.708 21.6927 107.361 22.0664C107.015 22.4355 106.801 22.9551 106.719 23.625H110.424V23.5293C110.387 22.8867 110.214 22.39 109.904 22.0391C109.594 21.6836 109.175 21.5059 108.646 21.5059Z" fill="white"/>
<path fill-rule="evenodd" clip-rule="evenodd" d="M48 44L48 -4.37115e-08L49 0L49 44L48 44Z" fill="#C04233"/>
<path fill-rule="evenodd" clip-rule="evenodd" d="M21.5833 25.1V22.5L21.5837 22.5L28.7442 22.5C28.7906 22.7706 28.832 23.0412 28.8519 23.3551C28.8599 23.481 28.8644 23.614 28.8644 23.7567C28.8644 28.09 25.96 31.1667 21.5833 31.1667C17.3908 31.1667 14 27.7758 14 23.5833C14 19.3908 17.3908 16 21.5833 16C23.6308 16 25.3425 16.7475 26.6642 17.9825L24.6058 19.965C24.0425 19.4233 23.0567 18.795 21.5833 18.795C18.9942 18.795 16.8817 20.94 16.8817 23.5833C16.8817 26.2277 18.9942 28.3717 21.5833 28.3717C24.5842 28.3717 25.7108 26.2147 25.8842 25.1H21.5833ZM36.7503 24.6667H40.0003V22.5H36.7503V19.25H34.5837V22.5H31.3337V23.6471V24.6667H34.5837V27.9167H36.7503V24.6667Z" fill="white"/>
</svg>
