<svg width="157" height="44" viewBox="0 0 157 44" fill="none" xmlns="http://www.w3.org/2000/svg">
<path d="M0 2C0 0.895431 0.895431 0 2 0H155C156.105 0 157 0.895431 157 2V42C157 43.1046 156.105 44 155 44H2C0.895426 44 0 43.1046 0 42V2Z" fill="#3D5B96"/>
<path d="M74.6445 23.6045H70.4678V28H69.1553V18.0469H75.3213V19.127H70.4678V22.5312H74.6445V23.6045Z" fill="white"/>
<path d="M81.0293 28C80.9564 27.8542 80.8971 27.5944 80.8516 27.2207C80.2637 27.8314 79.5618 28.1367 78.7461 28.1367C78.0169 28.1367 77.4176 27.9316 76.9482 27.5215C76.4834 27.1068 76.251 26.5827 76.251 25.9492C76.251 25.179 76.5426 24.582 77.126 24.1582C77.7139 23.7298 78.5387 23.5156 79.6006 23.5156H80.8311V22.9346C80.8311 22.4925 80.6989 22.1416 80.4346 21.8818C80.1702 21.6175 79.7806 21.4854 79.2656 21.4854C78.8145 21.4854 78.4362 21.5993 78.1309 21.8271C77.8255 22.055 77.6729 22.3307 77.6729 22.6543H76.4014C76.4014 22.2852 76.5312 21.9297 76.791 21.5879C77.0553 21.2415 77.4108 20.9681 77.8574 20.7676C78.3086 20.5671 78.8031 20.4668 79.3408 20.4668C80.193 20.4668 80.8607 20.681 81.3438 21.1094C81.8268 21.5332 82.0775 22.1188 82.0957 22.8662V26.2705C82.0957 26.9495 82.1823 27.4896 82.3555 27.8906V28H81.0293ZM78.9307 27.0361C79.3271 27.0361 79.7031 26.9336 80.0586 26.7285C80.4141 26.5234 80.6715 26.2568 80.8311 25.9287V24.4111H79.8398C78.2904 24.4111 77.5156 24.8646 77.5156 25.7715C77.5156 26.168 77.6478 26.4779 77.9121 26.7012C78.1764 26.9245 78.516 27.0361 78.9307 27.0361Z" fill="white"/>
<path d="M87.0449 27.1045C87.4961 27.1045 87.8903 26.9678 88.2275 26.6943C88.5648 26.4209 88.7516 26.0791 88.7881 25.6689H89.9844C89.9616 26.0928 89.8158 26.4961 89.5469 26.8789C89.278 27.2617 88.918 27.5671 88.4668 27.7949C88.0202 28.0228 87.5462 28.1367 87.0449 28.1367C86.0378 28.1367 85.2357 27.8018 84.6387 27.1318C84.0462 26.4574 83.75 25.5368 83.75 24.3701V24.1582C83.75 23.4382 83.8822 22.7979 84.1465 22.2373C84.4108 21.6768 84.7891 21.2415 85.2812 20.9316C85.778 20.6217 86.3636 20.4668 87.0381 20.4668C87.8675 20.4668 88.5557 20.7152 89.1025 21.2119C89.654 21.7087 89.9479 22.3535 89.9844 23.1465H88.7881C88.7516 22.668 88.5693 22.276 88.2412 21.9707C87.9176 21.6608 87.5166 21.5059 87.0381 21.5059C86.3955 21.5059 85.8965 21.7383 85.541 22.2031C85.1901 22.6634 85.0146 23.3311 85.0146 24.2061V24.4453C85.0146 25.2975 85.1901 25.9538 85.541 26.4141C85.8919 26.8743 86.3932 27.1045 87.0449 27.1045Z" fill="white"/>
<path d="M94.4756 28.1367C93.473 28.1367 92.6572 27.8086 92.0283 27.1523C91.3994 26.4915 91.085 25.6097 91.085 24.5068V24.2744C91.085 23.5407 91.224 22.8867 91.502 22.3125C91.7845 21.7337 92.1764 21.2826 92.6777 20.959C93.1836 20.6309 93.7305 20.4668 94.3184 20.4668C95.2799 20.4668 96.0273 20.7835 96.5605 21.417C97.0938 22.0505 97.3604 22.9574 97.3604 24.1377V24.6641H92.3496C92.3678 25.3932 92.5798 25.9834 92.9854 26.4346C93.3955 26.8812 93.915 27.1045 94.5439 27.1045C94.9906 27.1045 95.3688 27.0133 95.6787 26.8311C95.9886 26.6488 96.2598 26.4072 96.4922 26.1064L97.2646 26.708C96.6449 27.6605 95.7152 28.1367 94.4756 28.1367ZM94.3184 21.5059C93.8079 21.5059 93.3796 21.6927 93.0332 22.0664C92.6868 22.4355 92.4727 22.9551 92.3906 23.625H96.0957V23.5293C96.0592 22.8867 95.8861 22.39 95.5762 22.0391C95.2663 21.6836 94.847 21.5059 94.3184 21.5059Z" fill="white"/>
<path d="M105.092 24.3838C105.092 25.514 104.832 26.4232 104.312 27.1113C103.793 27.7949 103.096 28.1367 102.221 28.1367C101.286 28.1367 100.564 27.8063 100.054 27.1455L99.9922 28H98.8301V17.5H100.095V21.417C100.605 20.7835 101.309 20.4668 102.207 20.4668C103.105 20.4668 103.809 20.8063 104.319 21.4854C104.834 22.1644 105.092 23.0941 105.092 24.2744V24.3838ZM103.827 24.2402C103.827 23.3789 103.661 22.7135 103.328 22.2441C102.995 21.7747 102.517 21.54 101.893 21.54C101.059 21.54 100.459 21.9274 100.095 22.7021V25.9014C100.482 26.6761 101.086 27.0635 101.906 27.0635C102.512 27.0635 102.984 26.8288 103.321 26.3594C103.659 25.89 103.827 25.1836 103.827 24.2402Z" fill="white"/>
<path d="M106.356 24.2334C106.356 23.5088 106.498 22.8571 106.78 22.2783C107.067 21.6995 107.464 21.2529 107.97 20.9385C108.48 20.624 109.061 20.4668 109.713 20.4668C110.72 20.4668 111.534 20.8154 112.153 21.5127C112.778 22.21 113.09 23.1374 113.09 24.2949V24.3838C113.09 25.1038 112.951 25.751 112.673 26.3252C112.399 26.8949 112.005 27.3392 111.49 27.6582C110.98 27.9772 110.392 28.1367 109.727 28.1367C108.724 28.1367 107.91 27.7881 107.286 27.0908C106.666 26.3936 106.356 25.4707 106.356 24.3223V24.2334ZM107.628 24.3838C107.628 25.2041 107.817 25.8626 108.195 26.3594C108.578 26.8561 109.089 27.1045 109.727 27.1045C110.369 27.1045 110.88 26.8538 111.258 26.3525C111.636 25.8467 111.825 25.1403 111.825 24.2334C111.825 23.4222 111.632 22.766 111.244 22.2646C110.861 21.7588 110.351 21.5059 109.713 21.5059C109.089 21.5059 108.585 21.7542 108.202 22.251C107.819 22.7477 107.628 23.4587 107.628 24.3838Z" fill="white"/>
<path d="M114.341 24.2334C114.341 23.5088 114.482 22.8571 114.765 22.2783C115.052 21.6995 115.448 21.2529 115.954 20.9385C116.465 20.624 117.046 20.4668 117.697 20.4668C118.704 20.4668 119.518 20.8154 120.138 21.5127C120.762 22.21 121.074 23.1374 121.074 24.2949V24.3838C121.074 25.1038 120.935 25.751 120.657 26.3252C120.384 26.8949 119.99 27.3392 119.475 27.6582C118.964 27.9772 118.376 28.1367 117.711 28.1367C116.708 28.1367 115.895 27.7881 115.271 27.0908C114.651 26.3936 114.341 25.4707 114.341 24.3223V24.2334ZM115.612 24.3838C115.612 25.2041 115.801 25.8626 116.18 26.3594C116.562 26.8561 117.073 27.1045 117.711 27.1045C118.354 27.1045 118.864 26.8538 119.242 26.3525C119.62 25.8467 119.81 25.1403 119.81 24.2334C119.81 23.4222 119.616 22.766 119.229 22.2646C118.846 21.7588 118.335 21.5059 117.697 21.5059C117.073 21.5059 116.569 21.7542 116.187 22.251C115.804 22.7477 115.612 23.4587 115.612 24.3838Z" fill="white"/>
<path d="M124.725 24.5752L123.932 25.4023V28H122.667V17.5H123.932V23.8506L124.608 23.0371L126.912 20.6035H128.45L125.572 23.6934L128.785 28H127.302L124.725 24.5752Z" fill="white"/>
<line x1="48.5" y1="2.18558e-08" x2="48.5" y2="44" stroke="#264686"/>
<path fill-rule="evenodd" clip-rule="evenodd" d="M28.3333 18.3333H32L31.5417 22H28.3333V33H23.5781V22H21V18.3333H23.5781V15.8698C23.5781 14.2656 23.9792 13.053 24.7813 12.2318C25.5833 11.4106 26.9201 11 28.7917 11H32V14.6667H30.0521C29.3264 14.6667 28.8585 14.7813 28.6484 15.0104C28.4384 15.2396 28.3333 15.6215 28.3333 16.1563V18.3333Z" fill="white"/>
</svg>
