<?xml version="1.0" encoding="UTF-8"?>
<svg width="18px" height="18px" viewBox="0 0 18 18" version="1.1" xmlns="http://www.w3.org/2000/svg" xmlns:xlink="http://www.w3.org/1999/xlink">
    <!-- Generator: Sketch 54.1 (76490) - https://sketchapp.com -->
    <title>mail</title>
    <desc>Created with Sketch.</desc>
    <g id="Page-1" stroke="none" stroke-width="1" fill="none" fill-rule="evenodd">
        <g id="mail" fill="#FFFFFF">
            <rect id="Rectangle-Copy" opacity="0.00999999978" x="0" y="0" width="18" height="18"></rect>
            <path d="M16.0460526,2.84210526 L1.95394737,2.84210526 C1.68133096,2.84210526 1.44541624,2.93784962 1.24619655,3.12934027 C1.0469768,3.32082899 0.947368421,3.54759174 0.947368421,3.80963046 L0.947368421,5.44232923 L9,8.52631579 L17.0526316,5.44232923 L17.0526316,3.80963046 C17.0526316,3.54759174 16.9530225,3.32082899 16.7538024,3.12934027 C16.5545844,2.93784962 16.3186684,2.84210526 16.0460526,2.84210526 Z M0.947368421,7.57894737 L0.947368421,14.1720154 C0.947368421,14.4390256 1.0469768,14.6700889 1.24619655,14.8652118 C1.44541624,15.0603347 1.68133096,15.1578947 1.95394737,15.1578947 L16.0460526,15.1578947 C16.3186684,15.1578947 16.5545844,15.0603347 16.7538024,14.8652118 C16.9530225,14.6700889 17.0526316,14.4390256 17.0526316,14.1720154 L17.0526316,7.57894737 L9,10.7214377 L0.947368421,7.57894737 Z" id="Fill-1"></path>
        </g>
    </g>
</svg>