<svg width="9" height="9" viewBox="0 0 9 9" fill="none" xmlns="http://www.w3.org/2000/svg">
<path fill-rule="evenodd" clip-rule="evenodd" d="M8.24176 3.90399L4.97976 0.190863C4.70214 -0.063621 4.43031 -0.063621 4.16426 0.190863C3.89821 0.445347 3.90399 0.711393 4.18161 0.989012L7.13129 4.32042L4.18161 7.61712C4.06593 7.73279 4.0081 7.86582 4.0081 8.0162C4.0081 8.16657 4.06593 8.2996 4.18161 8.41527C4.43609 8.69289 4.70214 8.69289 4.97976 8.41527L8.24176 4.70214C8.35743 4.58647 8.41527 4.45344 8.41527 4.30306C8.41527 4.15269 8.35743 4.01967 8.24176 3.90399Z" fill="white"/>
<path fill-rule="evenodd" clip-rule="evenodd" d="M0.190863 7.6171C-0.0636209 7.89472 -0.0636209 8.16655 0.190863 8.4326C0.445346 8.69865 0.711393 8.69287 0.989012 8.41525L4.28572 4.70212C4.37825 4.58645 4.42452 4.45921 4.42452 4.3204C4.42452 4.15845 4.37825 4.01965 4.28572 3.90397L0.989012 0.190845C0.873338 0.0751694 0.740314 0.017334 0.589937 0.017334C0.439561 0.017334 0.306537 0.0751694 0.190863 0.190845C-0.0636209 0.445328 -0.0636209 0.711375 0.190863 0.988994L3.14054 4.3204L0.190863 7.6171Z" fill="white"/>
</svg>
