<?xml version="1.0" encoding="UTF-8"?>
<svg width="9px" height="9px" viewBox="0 0 9 9" version="1.1" xmlns="http://www.w3.org/2000/svg" xmlns:xlink="http://www.w3.org/1999/xlink">
    <!-- Generator: Sketch 54.1 (76490) - https://sketchapp.com -->
    <title>more_dm_hover</title>
    <desc>Created with Sketch.</desc>
    <g id="Page-1" stroke="none" stroke-width="1" fill="none" fill-rule="evenodd">
        <g id="more_dm_hover" transform="translate(0.000000, 0.000000)" fill="#DDDDDD">
            <path d="M8.24175993,3.90399 L4.97975993,0.190863 C4.70213993,-0.063621 4.43030993,-0.063621 4.16425993,0.190863 C3.89820993,0.445347 3.90398993,0.711393 4.18160993,0.989012 L7.13128993,4.32042 L4.18160993,7.61712 C4.06592993,7.73279 4.00809993,7.86582 4.00809993,8.0162 C4.00809993,8.16657 4.06592993,8.2996 4.18160993,8.41527 C4.43608993,8.69289 4.70213993,8.69289 4.97975993,8.41527 L8.24175993,4.70214 C8.35742993,4.58647 8.41526993,4.45344 8.41526993,4.30306 C8.41526993,4.15269 8.35742993,4.01967 8.24175993,3.90399 Z" id="Path"></path>
            <path d="M0.190862925,7.6171 C-0.063620975,7.89472 -0.063620975,8.16655 0.190862925,8.4326 C0.445345925,8.69865 0.711392925,8.69287 0.989011925,8.41525 L4.28571993,4.70212 C4.37824993,4.58645 4.42451993,4.45921 4.42451993,4.3204 C4.42451993,4.15845 4.37824993,4.01965 4.28571993,3.90397 L0.989011925,0.190845 C0.873337925,0.0751694 0.740313925,0.017334 0.589936925,0.017334 C0.439560925,0.017334 0.306536925,0.0751694 0.190862925,0.190845 C-0.063620975,0.445328 -0.063620975,0.711375 0.190862925,0.988994 L3.14053993,4.3204 L0.190862925,7.6171 Z" id="Path"></path>
        </g>
    </g>
</svg>