<?xml version="1.0" encoding="UTF-8"?>
<svg width="18px" height="18px" viewBox="0 0 18 18" version="1.1" xmlns="http://www.w3.org/2000/svg" xmlns:xlink="http://www.w3.org/1999/xlink">
    <!-- Generator: Sketch 54.1 (76490) - https://sketchapp.com -->
    <title>phone</title>
    <desc>Created with Sketch.</desc>
    <g id="Page-1" stroke="none" stroke-width="1" fill="none" fill-rule="evenodd">
        <g id="phone" fill="#FFFFFF">
            <rect id="Rectangle" opacity="0.01" x="0" y="0" width="18" height="18"></rect>
            <g id="Group-2" transform="translate(2.842105, 0.000000)">
                <path d="M5.74104596,10.7597395 C5.7282122,10.7597395 5.62555683,10.5961305 5.43307495,10.26891 C5.2405906,9.94168961 5.02886176,9.58239338 4.7978835,9.19101149 C4.56690524,8.79962961 4.35196857,8.44033338 4.15306857,8.11311294 C3.95417104,7.78589251 3.85472104,7.61586787 3.85472104,7.60303656 C3.66223915,7.17957396 3.52750356,6.7753657 3.45051031,6.39039946 C3.37351706,6.00543323 3.49542111,5.7167141 3.81622712,5.52423222 L1.1407277,1.02015367 C0.961077049,1.14847656 0.742933123,1.42757222 0.486289297,1.85745048 C0.229645471,2.28732874 0.0724536157,2.89364236 0.0147088041,3.67640613 C-0.0430362539,4.45916743 0.0692438186,5.43119294 0.351551978,6.59250483 C0.633860137,7.75381917 1.23696401,9.13005048 2.16088169,10.7212406 C3.12329604,12.4022598 4.06003176,13.6790435 4.97111843,14.5516313 C5.88220263,15.4242202 6.71307393,16.040156 7.46375698,16.3994574 C8.21444002,16.7587587 8.84962408,16.9255747 9.36932886,16.8999103 C9.88903118,16.874246 10.2451196,16.810086 10.4376039,16.7074284 L7.81985031,12.2995945 C7.51187683,12.4792451 7.20711611,12.4311228 6.90556075,12.1552325 C6.60400292,11.8793398 6.21583625,11.4141803 5.74104596,10.7597395 Z" id="Path"></path>
                <path d="M12.2276842,14.9943397 C12.2276842,14.9943397 12.121821,14.8146918 11.9100897,14.4553904 C11.6983584,14.096088 11.4641748,13.7015057 11.2075315,13.2716274 C10.9508857,12.8417492 10.7167021,12.4471644 10.5049707,12.0878632 C10.2932394,11.7285621 10.1873763,11.548914 10.1873763,11.548914 C10.1103835,11.4205911 9.99489437,11.3371851 9.84090886,11.2986887 C9.68692335,11.2601899 9.5393535,11.2794393 9.3981993,11.3564321 L8.16631524,12.0878632 L10.7648219,16.5149466 C10.7648219,16.5149466 10.9733429,16.3898347 11.3903874,16.1396068 C11.8074344,15.8893791 12.0159529,15.7642672 12.0159529,15.7642672 C12.1571071,15.687274 12.2469312,15.5717861 12.28543,15.4177998 C12.3239264,15.2638136 12.304677,15.1226616 12.2276842,14.9943397 Z" id="Path"></path>
                <path d="M5.39457611,4.60031917 L5.39457611,4.58106975 C5.53573031,4.504077 5.62555437,4.38858787 5.66405321,4.23460236 C5.70254959,4.08061685 5.68330017,3.93946512 5.60630741,3.81114222 C5.60630741,3.81114222 5.4972364,3.62507845 5.27908944,3.25294352 C5.06094002,2.88081106 4.82034075,2.4766028 4.55728176,2.04030888 C4.29422031,1.60401497 4.05362104,1.19980671 3.83547408,0.827674246 C3.61732712,0.455539318 3.50825488,0.26947555 3.50825488,0.26947555 C3.43126163,0.141152652 3.31577373,0.0577467096 3.16178749,0.019247869 C3.00780124,-0.0192485078 2.86023335,9.12510607e-07 2.71907915,0.0769936661 L1.48719509,0.808424826 L4.14344509,5.33174787 C4.14344509,5.33174787 4.35196611,5.20984555 4.7690106,4.96603352 C5.18605756,4.72222149 5.39457611,4.60031917 5.39457611,4.60031917 Z" id="Path"></path>
            </g>
        </g>
    </g>
</svg>