<?xml version="1.0" encoding="UTF-8"?>
<svg width="24px" height="23px" viewBox="0 0 24 23" version="1.1" xmlns="http://www.w3.org/2000/svg" xmlns:xlink="http://www.w3.org/1999/xlink">
    <!-- Generator: Sketch 54.1 (76490) - https://sketchapp.com -->
    <title>search</title>
    <desc>Created with Sketch.</desc>
    <g id="Page-1" stroke="none" stroke-width="1" fill="none" fill-rule="evenodd">
        <g id="search">
            <rect id="Rectangle" fill="#FFBE00" opacity="0.01" x="0" y="0" width="24" height="22.5"></rect>
            <path d="M15.4855764,13.4987967 C16.6490465,12.3353296 17.2307697,10.9383097 17.2307697,9.30769242 C17.2307697,7.67707517 16.6512499,6.28225563 15.4921895,5.1231953 C14.3331292,3.96413496 12.9383097,3.38461516 11.3076924,3.38461516 C9.67707517,3.38461516 8.28225859,3.96413496 7.12319826,5.1231953 C5.96413792,6.28225563 5.38461516,7.67707517 5.38461516,9.30769242 C5.38461516,10.9383097 5.96413792,12.3331262 7.12319826,13.4921866 C8.28225859,14.6512469 9.67707517,15.2307697 11.3076924,15.2307697 C12.9383097,15.2307697 14.3309258,14.6534503 15.4855764,13.4987967 Z M24,20.3076921 C24,20.7660278 23.8325339,21.1626584 23.4975987,21.497596 C23.1626605,21.8325337 22.7660305,22 22.3076939,22 C21.8317302,22 21.4351002,21.8325337 21.1177891,21.497596 L16.5829331,16.97596 C15.0052001,18.0689158 13.2468043,18.6153848 11.3076924,18.6153848 C10.0472705,18.6153848 8.84195386,18.3707943 7.69170706,17.8816103 C6.54146026,17.3924263 5.54988382,16.7313754 4.71694723,15.8984367 C3.88401034,15.065501 3.22295938,14.0739246 2.73377421,12.9236778 C2.24458891,11.773431 2,10.5681144 2,9.30769242 C2,8.0472675 2.24458891,6.84195089 2.73377421,5.69170706 C3.22295938,4.54146026 3.88401034,3.54988382 4.71694723,2.71694516 C5.54988382,1.88400945 6.54146026,1.22295849 7.69170706,0.733771542 C8.84195386,0.244587553 10.0472705,0 11.3076924,0 C12.5681173,0 13.773431,0.244587553 14.9236778,0.733771542 C16.0739246,1.22295849 17.065501,1.88400945 17.8984397,2.71694516 C18.7313754,3.54988382 19.3924263,4.54146026 19.8816103,5.69170706 C20.3707973,6.84195089 20.6153848,8.0472675 20.6153848,9.30769242 C20.6153848,11.2468043 20.0689158,13.0052001 18.9759629,14.5829331 L23.510819,19.1177883 C23.8369406,19.4439117 24,19.8405423 24,20.3076921 Z" fill="#FFFFFF"></path>
        </g>
    </g>
</svg>