<?xml version="1.0" encoding="UTF-8"?>
<svg width="25px" height="27px" viewBox="0 0 25 27" version="1.1" xmlns="http://www.w3.org/2000/svg" xmlns:xlink="http://www.w3.org/1999/xlink">
    <!-- Generator: Sketch 54.1 (76490) - https://sketchapp.com -->
    <title>send</title>
    <desc>Created with Sketch.</desc>
    <g id="Page-1" stroke="none" stroke-width="1" fill="none" fill-rule="evenodd">
        <g id="send">
            <rect id="Rectangle" fill="#FFBE00" opacity="0.00999999978" x="0" y="0" width="25" height="27"></rect>
            <path d="M24.6085635,0.167700689 C24.915434,0.390878984 25.0409692,0.688444836 24.9851755,1.06040762 L21.4143415,22.4853967 C21.3678461,22.7550701 21.2190648,22.9642966 20.967988,23.1130817 C20.8378004,23.1874746 20.6936683,23.2246703 20.5355822,23.2246703 C20.4332931,23.2246703 20.3217055,23.2014229 20.2008195,23.1549276 L12.8499272,20.1559886 L8.69325681,24.7171662 C8.52587231,24.9124471 8.30734636,25.010086 8.03767272,25.010086 C7.90748824,25.010086 7.80054988,24.9914881 7.71685763,24.9542918 C7.54017468,24.8891982 7.40069176,24.7799355 7.2983995,24.6265005 C7.19611036,24.4730658 7.14496579,24.3033598 7.14496579,24.1173781 L7.14496579,17.8126305 L0.561246089,15.1205558 C0.217179859,14.9903713 0.0312009044,14.7346485 0.00330366443,14.3533873 C-0.0245936036,13.9907229 0.124189538,13.7164032 0.449657567,13.5304218 L23.6600596,0.139805355 C23.9855302,-0.0554776054 24.3016929,-0.0461791608 24.6085635,0.167700689 Z M19.8381551,21.0765908 L22.9207864,2.62264631 L2.91855273,14.1581074 L7.60527004,16.0690597 L19.6428753,7.15592866 L12.9754655,18.2729317 L19.8381551,21.0765908 Z" fill="#FFFFFF"></path>
        </g>
    </g>
</svg>