<?xml version="1.0" encoding="UTF-8"?>
<svg width="76px" height="55px" viewBox="0 0 76 55" version="1.1" xmlns="http://www.w3.org/2000/svg" xmlns:xlink="http://www.w3.org/1999/xlink">
    <!-- Generator: Sketch 54.1 (76490) - https://sketchapp.com -->
    <title>thu</title>
    <desc>Created with Sketch.</desc>
    <g id="Page-1" stroke="none" stroke-width="1" fill="none" fill-rule="evenodd">
        <g id="thu" fill-rule="nonzero">
            <rect id="Rectangle-path" fill="#ECF0F1" x="0" y="0" width="75.902965" height="54.964216"></rect>
            <path d="M11.7780463,28.7907798 C11.0552868,28.7907798 10.4693745,28.2048674 10.4693745,27.482108 C10.4693745,26.7593486 11.0552868,26.1734362 11.7780463,26.1734362 L37.9514825,26.1734362 C38.6742419,26.1734362 39.2601543,26.7593486 39.2601543,27.482108 C39.2601543,28.2048674 38.6742419,28.7907798 37.9514825,28.7907798 L11.7780463,28.7907798 Z" id="Shape" fill="#2980BA"></path>
            <path d="M11.7780463,34.0254671 C11.0552868,34.0254671 10.4693745,33.4395547 10.4693745,32.7167952 C10.4693745,31.9940358 11.0552868,31.4081234 11.7780463,31.4081234 L37.9514825,31.4081234 C38.6742419,31.4081234 39.2601543,31.9940358 39.2601543,32.7167952 C39.2601543,33.4395547 38.6742419,34.0254671 37.9514825,34.0254671 L11.7780463,34.0254671 Z" id="Shape" fill="#2980BA"></path>
            <path d="M11.7780463,39.2601543 C11.0552868,39.2601543 10.4693745,38.6742419 10.4693745,37.9514825 C10.4693745,37.2287231 11.0552868,36.6428107 11.7780463,36.6428107 L37.9514825,36.6428107 C38.6742419,36.6428107 39.2601543,37.2287231 39.2601543,37.9514825 C39.2601543,38.6742419 38.6742419,39.2601543 37.9514825,39.2601543 L11.7780463,39.2601543 Z" id="Shape" fill="#2980BA"></path>
            <path d="M11.7780463,44.4948415 C11.0552868,44.4948415 10.4693745,43.9089291 10.4693745,43.1861697 C10.4693745,42.4634103 11.0552868,41.8774979 11.7780463,41.8774979 L28.7907798,41.8774979 C29.5135392,41.8774979 30.0994516,42.4634103 30.0994516,43.1861697 C30.0994516,43.9089291 29.5135392,44.4948415 28.7907798,44.4948415 L11.7780463,44.4948415 Z" id="Shape" fill="#2980BA"></path>
            <g id="Group" transform="translate(3.926015, 3.926015)" fill="#E64C3C">
                <path d="M27.482108,2.61734362 L24.8647644,2.61734362 C24.142005,2.61734362 23.5560926,2.03143129 23.5560926,1.30867181 C23.5560926,0.585912326 24.142005,0 24.8647644,0 L27.482108,0 C28.2048674,0 28.7907798,0.585912326 28.7907798,1.30867181 C28.7907798,2.03143129 28.2048674,2.61734362 27.482108,2.61734362 Z" id="Shape"></path>
                <path d="M19.6300771,2.61734362 L17.0127335,2.61734362 C16.2899741,2.61734362 15.7040617,2.03143129 15.7040617,1.30867181 C15.7040617,0.585912326 16.2899741,0 17.0127335,0 L19.6300771,0 C20.3528366,0 20.938749,0.585912326 20.938749,1.30867181 C20.938749,2.03143129 20.3528366,2.61734362 19.6300771,2.61734362 Z" id="Shape"></path>
                <path d="M11.7780463,2.61734362 L9.16070267,2.61734362 C8.43794318,2.61734362 7.85203086,2.03143129 7.85203086,1.30867181 C7.85203086,0.585912326 8.43794318,0 9.16070267,0 L11.7780463,0 C12.5008057,0 13.0867181,0.585912326 13.0867181,1.30867181 C13.0867181,2.03143129 12.5008057,2.61734362 11.7780463,2.61734362 Z" id="Shape"></path>
                <path d="M3.92601543,2.61734362 L1.30867181,2.61734362 C0.585912326,2.61734362 0,2.03143129 0,1.30867181 C0,0.585912326 0.585912326,0 1.30867181,0 L3.92601543,0 C4.64877491,0 5.23468724,0.585912326 5.23468724,1.30867181 C5.23468724,2.03143129 4.64877491,2.61734362 3.92601543,2.61734362 Z" id="Shape"></path>
                <path d="M1.30867181,10.4693745 C0.585912326,10.4693745 0,9.88346209 0,9.16070267 L0,6.54335905 C0,5.82059957 0.585912326,5.23468724 1.30867181,5.23468724 C2.03143129,5.23468724 2.61734362,5.82059957 2.61734362,6.54335905 L2.61734362,9.16070267 C2.61734362,9.88346209 2.03143129,10.4693745 1.30867181,10.4693745 Z" id="Shape"></path>
                <path d="M1.30867181,18.3214053 C0.585912326,18.3214053 0,17.7354929 0,17.0127335 L0,14.3953899 C0,13.6726305 0.585912326,13.0867181 1.30867181,13.0867181 C2.03143129,13.0867181 2.61734362,13.6726305 2.61734362,14.3953899 L2.61734362,17.0127335 C2.61734362,17.7354929 2.03143129,18.3214053 1.30867181,18.3214053 Z" id="Shape"></path>
                <path d="M43.1861697,2.61734362 L40.5688261,2.61734362 C39.8460667,2.61734362 39.2601543,2.03143129 39.2601543,1.30867181 C39.2601543,0.585912326 39.8460667,0 40.5688261,0 L43.1861697,0 C43.9089291,0 44.4948415,0.585912326 44.4948415,1.30867181 C44.4948415,2.03143129 43.9089291,2.61734362 43.1861697,2.61734362 Z" id="Shape"></path>
                <path d="M51.0382006,2.61734362 L48.420857,2.61734362 C47.6980975,2.61734362 47.1121851,2.03143129 47.1121851,1.30867181 C47.1121851,0.585912326 47.6980975,0 48.420857,0 L51.0382006,0 C51.76096,0 52.3468724,0.585912326 52.3468724,1.30867181 C52.3468724,2.03143129 51.76096,2.61734362 51.0382006,2.61734362 Z" id="Shape"></path>
                <path d="M58.8902314,2.61734362 L56.2728878,2.61734362 C55.5501284,2.61734362 54.964216,2.03143129 54.964216,1.30867181 C54.964216,0.585912326 55.5501284,0 56.2728878,0 L58.8902314,0 C59.6129909,0 60.1989032,0.585912326 60.1989032,1.30867181 C60.1989032,2.03143129 59.6129909,2.61734362 58.8902314,2.61734362 Z" id="Shape"></path>
                <path d="M66.7422623,2.61734362 L64.1249187,2.61734362 C63.4021593,2.61734362 62.8162469,2.03143129 62.8162469,1.30867181 C62.8162469,0.585912326 63.4021593,0 64.1249187,0 L66.7422623,0 C67.4650217,0 68.0509341,0.585912326 68.0509341,1.30867181 C68.0509341,2.03143129 67.4650217,2.61734362 66.7422623,2.61734362 Z" id="Shape"></path>
                <path d="M66.7422623,10.4693745 C66.0195029,10.4693745 65.4335905,9.88346209 65.4335905,9.16070267 L65.4335905,6.54335905 C65.4335905,5.82059957 66.0195029,5.23468724 66.7422623,5.23468724 C67.4650217,5.23468724 68.0509341,5.82059957 68.0509341,6.54335905 L68.0509341,9.16070267 C68.0509341,9.88346209 67.4650217,10.4693745 66.7422623,10.4693745 Z" id="Shape"></path>
                <path d="M66.7422623,18.3214053 C66.0195029,18.3214053 65.4335905,17.7354929 65.4335905,17.0127335 L65.4335905,14.3953899 C65.4335905,13.6726305 66.0195029,13.0867181 66.7422623,13.0867181 C67.4650217,13.0867181 68.0509341,13.6726305 68.0509341,14.3953899 L68.0509341,17.0127335 C68.0509341,17.7354929 67.4650217,18.3214053 66.7422623,18.3214053 Z" id="Shape"></path>
                <path d="M1.30867181,26.1734362 C0.585912326,26.1734362 0,25.5875238 0,24.8647644 L0,22.2474208 C0,21.5246613 0.585912326,20.938749 1.30867181,20.938749 C2.03143129,20.938749 2.61734362,21.5246613 2.61734362,22.2474208 L2.61734362,24.8647644 C2.61734362,25.5875238 2.03143129,26.1734362 1.30867181,26.1734362 Z" id="Shape"></path>
                <path d="M66.7422623,26.1734362 C66.0195029,26.1734362 65.4335905,25.5875238 65.4335905,24.8647644 L65.4335905,22.2474208 C65.4335905,21.5246613 66.0195029,20.938749 66.7422623,20.938749 C67.4650217,20.938749 68.0509341,21.5246613 68.0509341,22.2474208 L68.0509341,24.8647644 C68.0509341,25.5875238 67.4650217,26.1734362 66.7422623,26.1734362 Z" id="Shape"></path>
                <path d="M35.3341389,2.61734362 L32.7167952,2.61734362 C31.9940358,2.61734362 31.4081234,2.03143129 31.4081234,1.30867181 C31.4081234,0.585912326 31.9940358,0 32.7167952,0 L35.3341389,0 C36.0568983,0 36.6428107,0.585912326 36.6428107,1.30867181 C36.6428107,2.03143129 36.0568983,2.61734362 35.3341389,2.61734362 Z" id="Shape"></path>
                <path d="M27.482108,47.1121851 L24.8647644,47.1121851 C24.142005,47.1121851 23.5560926,46.5262728 23.5560926,45.8035133 C23.5560926,45.0807539 24.142005,44.4948415 24.8647644,44.4948415 L27.482108,44.4948415 C28.2048674,44.4948415 28.7907798,45.0807539 28.7907798,45.8035133 C28.7907798,46.5262728 28.2048674,47.1121851 27.482108,47.1121851 Z" id="Shape"></path>
                <path d="M19.6300771,47.1121851 L17.0127335,47.1121851 C16.2899741,47.1121851 15.7040617,46.5262728 15.7040617,45.8035133 C15.7040617,45.0807539 16.2899741,44.4948415 17.0127335,44.4948415 L19.6300771,44.4948415 C20.3528366,44.4948415 20.938749,45.0807539 20.938749,45.8035133 C20.938749,46.5262728 20.3528366,47.1121851 19.6300771,47.1121851 Z" id="Shape"></path>
                <path d="M11.7780463,47.1121851 L9.16070267,47.1121851 C8.43794318,47.1121851 7.85203086,46.5262728 7.85203086,45.8035133 C7.85203086,45.0807539 8.43794318,44.4948415 9.16070267,44.4948415 L11.7780463,44.4948415 C12.5008057,44.4948415 13.0867181,45.0807539 13.0867181,45.8035133 C13.0867181,46.5262728 12.5008057,47.1121851 11.7780463,47.1121851 Z" id="Shape"></path>
                <path d="M3.92601543,47.1121851 L1.30867181,47.1121851 C0.585912326,47.1121851 0,46.5262728 0,45.8035133 C0,45.0807539 0.585912326,44.4948415 1.30867181,44.4948415 L3.92601543,44.4948415 C4.64877491,44.4948415 5.23468724,45.0807539 5.23468724,45.8035133 C5.23468724,46.5262728 4.64877491,47.1121851 3.92601543,47.1121851 Z" id="Shape"></path>
                <path d="M1.30867181,41.8774979 C0.585912326,41.8774979 0,41.2915855 0,40.5688261 L0,37.9514825 C0,37.2287231 0.585912326,36.6428107 1.30867181,36.6428107 C2.03143129,36.6428107 2.61734362,37.2287231 2.61734362,37.9514825 L2.61734362,40.5688261 C2.61734362,41.2915855 2.03143129,41.8774979 1.30867181,41.8774979 Z" id="Shape"></path>
                <path d="M1.30867181,34.0254671 C0.585912326,34.0254671 0,33.4395547 0,32.7167952 L0,30.0994516 C0,29.3766922 0.585912326,28.7907798 1.30867181,28.7907798 C2.03143129,28.7907798 2.61734362,29.3766922 2.61734362,30.0994516 L2.61734362,32.7167952 C2.61734362,33.4395547 2.03143129,34.0254671 1.30867181,34.0254671 Z" id="Shape"></path>
                <path d="M43.1861697,47.1121851 L40.5688261,47.1121851 C39.8460667,47.1121851 39.2601543,46.5262728 39.2601543,45.8035133 C39.2601543,45.0807539 39.8460667,44.4948415 40.5688261,44.4948415 L43.1861697,44.4948415 C43.9089291,44.4948415 44.4948415,45.0807539 44.4948415,45.8035133 C44.4948415,46.5262728 43.9089291,47.1121851 43.1861697,47.1121851 Z" id="Shape"></path>
                <path d="M51.0382006,47.1121851 L48.420857,47.1121851 C47.6980975,47.1121851 47.1121851,46.5262728 47.1121851,45.8035133 C47.1121851,45.0807539 47.6980975,44.4948415 48.420857,44.4948415 L51.0382006,44.4948415 C51.76096,44.4948415 52.3468724,45.0807539 52.3468724,45.8035133 C52.3468724,46.5262728 51.76096,47.1121851 51.0382006,47.1121851 Z" id="Shape"></path>
                <path d="M58.8902314,47.1121851 L56.2728878,47.1121851 C55.5501284,47.1121851 54.964216,46.5262728 54.964216,45.8035133 C54.964216,45.0807539 55.5501284,44.4948415 56.2728878,44.4948415 L58.8902314,44.4948415 C59.6129909,44.4948415 60.1989032,45.0807539 60.1989032,45.8035133 C60.1989032,46.5262728 59.6129909,47.1121851 58.8902314,47.1121851 Z" id="Shape"></path>
                <path d="M66.7422623,47.1121851 L64.1249187,47.1121851 C63.4021593,47.1121851 62.8162469,46.5262728 62.8162469,45.8035133 C62.8162469,45.0807539 63.4021593,44.4948415 64.1249187,44.4948415 L66.7422623,44.4948415 C67.4650217,44.4948415 68.0509341,45.0807539 68.0509341,45.8035133 C68.0509341,46.5262728 67.4650217,47.1121851 66.7422623,47.1121851 Z" id="Shape"></path>
                <path d="M66.7422623,41.8774979 C66.0195029,41.8774979 65.4335905,41.2915855 65.4335905,40.5688261 L65.4335905,37.9514825 C65.4335905,37.2287231 66.0195029,36.6428107 66.7422623,36.6428107 C67.4650217,36.6428107 68.0509341,37.2287231 68.0509341,37.9514825 L68.0509341,40.5688261 C68.0509341,41.2915855 67.4650217,41.8774979 66.7422623,41.8774979 Z" id="Shape"></path>
                <path d="M66.7422623,34.0254671 C66.0195029,34.0254671 65.4335905,33.4395547 65.4335905,32.7167952 L65.4335905,30.0994516 C65.4335905,29.3766922 66.0195029,28.7907798 66.7422623,28.7907798 C67.4650217,28.7907798 68.0509341,29.3766922 68.0509341,30.0994516 L68.0509341,32.7167952 C68.0509341,33.4395547 67.4650217,34.0254671 66.7422623,34.0254671 Z" id="Shape"></path>
                <path d="M35.3341389,47.1121851 L32.7167952,47.1121851 C31.9940358,47.1121851 31.4081234,46.5262728 31.4081234,45.8035133 C31.4081234,45.0807539 31.9940358,44.4948415 32.7167952,44.4948415 L35.3341389,44.4948415 C36.0568983,44.4948415 36.6428107,45.0807539 36.6428107,45.8035133 C36.6428107,46.5262728 36.0568983,47.1121851 35.3341389,47.1121851 Z" id="Shape"></path>
            </g>
            <rect id="Rectangle-path" fill="#F0C419" x="48.420857" y="11.7780463" width="15.7040617" height="18.3214053" rx="7.85203086"></rect>
        </g>
    </g>
</svg>