<svg width="18" height="18" viewBox="0 0 18 18" fill="none" xmlns="http://www.w3.org/2000/svg">
<path d="M16.2 0H1.8C0.81 0 0 0.81 0 1.8V16.2C0 17.19 0.81 18 1.8 18H16.2C17.19 18 18 17.19 18 16.2V1.8C18 0.81 17.19 0 16.2 0ZM14.13 6.57C14.04 10.71 11.43 13.59 7.47 13.77C5.85 13.86 4.68 13.32 3.6 12.69C4.77 12.87 6.3 12.42 7.11 11.7C5.94 11.61 5.22 10.98 4.86 9.99C5.22 10.08 5.58 9.99 5.85 9.99C4.77 9.63 4.05 9 3.96 7.56C4.23 7.74 4.59 7.83 4.95 7.83C4.14 7.38 3.6 5.67 4.23 4.59C5.4 5.85 6.84 6.93 9.18 7.11C8.55 4.59 11.97 3.24 13.32 4.95C13.95 4.86 14.4 4.59 14.85 4.41C14.67 5.04 14.31 5.4 13.86 5.76C14.31 5.67 14.76 5.58 15.12 5.4C15.03 5.85 14.58 6.21 14.13 6.57Z" fill="white"/>
</svg>
