<svg width="40" height="40" viewBox="0 0 40 40" fill="none" xmlns="http://www.w3.org/2000/svg">
<rect width="40" height="40" fill="#F3B23C"/>
<path fill-rule="evenodd" clip-rule="evenodd" d="M26.8984 25.6173C27.0026 25.7215 27.0547 25.8517 27.0547 26.0079C27.0547 26.1642 27.0026 26.2944 26.8984 26.3985L25.414 27.8439C25.3099 27.948 25.1927 28.0001 25.0625 28.0001C24.9062 28.0001 24.776 27.948 24.6719 27.8439L19.5546 22.7266L14.4374 27.8439C14.3332 27.948 14.216 28.0001 14.0858 28.0001C13.9296 28.0001 13.7994 27.948 13.6952 27.8439L12.2108 26.3985C12.1066 26.2944 12.0546 26.1642 12.0546 26.0079C12.0546 25.8517 12.1066 25.7215 12.2108 25.6173L17.3671 20.5001L12.2108 15.4219C11.9504 15.1615 11.9504 14.9011 12.2108 14.6406L13.6561 13.1563C13.8124 13.0521 13.9426 13 14.0468 13C14.203 13 14.3332 13.0521 14.4374 13.1563L19.5546 18.2344L24.6719 13.1563C24.8281 13.0521 24.9583 13 25.0625 13C25.2187 13 25.3489 13.0521 25.4531 13.1563L26.8984 14.6406C27.1589 14.9011 27.1589 15.1485 26.8984 15.3828L21.7421 20.461L26.8984 25.6173Z" fill="white"/>
</svg>
