<svg width="22" height="22" viewBox="0 0 22 22" fill="none" xmlns="http://www.w3.org/2000/svg">
<rect width="22" height="22" fill="white"/>
<rect x="0.5" y="0.5" width="21" height="21" stroke="#979797" stroke-opacity="0.5"/>
<path fill-rule="evenodd" clip-rule="evenodd" d="M16.8729 8.10118L15.9129 7.14118C15.8188 7.04706 15.7106 7 15.5882 7C15.4659 7 15.3576 7.04706 15.2635 7.14118L9.48941 12.9153L6.73647 10.1482C6.64235 10.0635 6.53412 10.0212 6.41176 10.0212C6.28941 10.0212 6.18118 10.0635 6.08706 10.1482L5.12706 11.1082C5.04235 11.2024 5 11.3106 5 11.4329C5 11.5553 5.04235 11.6635 5.12706 11.7576L9.16471 15.8094C9.24941 15.9035 9.35529 15.9506 9.48235 15.9506C9.60941 15.9506 9.71529 15.9035 9.8 15.8094L16.8729 8.75059C16.9576 8.65647 17 8.54588 17 8.41882C17 8.29176 16.9576 8.18588 16.8729 8.10118Z" fill="#B24F9D"/>
</svg>
