<svg width="212" height="168" viewBox="0 0 212 168" fill="none" xmlns="http://www.w3.org/2000/svg">
<path d="M115.105 35.4868C115.736 36.3393 116.051 37.405 116.051 38.5772C116.051 41.4545 113.738 43.799 110.898 43.799C108.058 43.799 105.745 41.4545 105.745 38.5772C105.745 35.8065 107.953 33.462 110.688 33.3554C108.795 32.716 106.691 32.3963 104.588 32.3963C93.8602 32.3963 85.131 41.2414 85.131 52.1112C85.131 62.981 93.8602 71.8261 104.588 71.8261C115.315 71.8261 124.044 62.981 124.044 52.1112C123.939 45.0778 120.363 39.0035 115.105 35.4868Z" fill="url(#paint0_linear)"/>
<path d="M118.681 4.36925C118.681 4.36925 131.932 18.5426 131.932 33.5686C131.932 29.4125 132.037 76.4084 132.142 76.9413H98.5929C98.5929 76.9413 85.4465 76.8347 79.4518 64.6861C75.4553 56.6936 76.7173 47.2091 82.0811 40.0691C85.2362 35.8065 89.443 32.2898 94.7016 30.0519C97.6464 28.7731 100.591 27.9205 103.536 27.6008C97.7515 26.6417 91.6516 27.2811 85.762 29.8387C83.2379 30.9044 80.9242 32.3963 78.8208 33.9948C78.8208 33.7817 78.9259 33.5686 78.9259 33.462C78.9259 33.462 78.8208 33.7817 78.5052 34.208C67.883 42.8399 63.7813 57.6527 69.3554 70.6538C73.8777 81.2039 83.6586 88.5571 94.3861 89.6227H96.805H144.763V33.1423C144.763 33.2489 141.608 11.1895 118.681 4.36925Z" fill="url(#paint1_linear)"/>
<path d="M88.3913 8.95162C109.636 8.95162 126.779 26.4286 126.779 47.9551C126.779 49.8733 126.674 51.7915 126.358 53.7097C128.041 49.3405 128.987 44.5449 128.987 39.6429C128.987 18.1164 111.739 0.639404 90.5999 0.639404C71.3536 0.639404 55.3676 15.1325 52.6332 33.8883C58.1021 19.2886 72.0898 8.95162 88.3913 8.95162Z" fill="url(#paint2_linear)"/>
<path d="M109.531 22.1659C109.531 22.0593 109.531 22.0593 109.531 22.1659C107.112 20.5674 104.377 19.182 101.222 18.1164C101.117 18.1164 101.012 18.0098 100.802 18.0098C100.591 17.9032 100.276 17.9032 100.065 17.7967C99.7498 17.6901 99.4343 17.5835 99.2239 17.5835C99.1188 17.5835 99.0136 17.477 98.8033 17.477C98.3826 17.3704 97.9619 17.2638 97.5412 17.1573C97.436 17.1573 97.436 17.1573 97.3309 17.1573C96.9102 17.0507 96.3843 16.9441 95.9636 16.8376H95.8585C93.4395 16.4113 91.0206 16.0916 88.3913 16.0916C67.2519 16.0916 50.1091 32.6095 50.1091 52.9637C50.1091 69.5882 61.4675 83.5484 77.138 88.2374C66.8313 81.6302 59.9951 70.3341 59.9951 57.5461C59.9951 50.939 61.7831 44.6515 65.0434 39.2166C73.457 25.0432 90.3896 18.8623 106.06 23.5513C111.108 25.0432 116.051 27.814 119.943 32.8226C120.048 32.716 116.998 26.8548 109.531 22.1659Z" fill="#F4933C"/>
<path d="M14.4336 111.782H20.9165V132.78C20.9165 135.53 20.6718 137.655 20.1825 139.155C19.5709 141.03 18.3478 142.655 16.7576 143.78C15.0452 144.904 12.8434 145.529 10.1524 145.529C6.97215 145.529 4.52578 144.654 2.81332 142.78C1.10086 140.905 0.244629 138.28 0.244629 134.655L6.36055 133.905C6.48287 135.78 6.72751 137.155 7.21678 137.905C7.95069 139.155 9.05156 139.655 10.3971 139.655C11.8649 139.655 12.8434 139.28 13.455 138.405C14.0666 137.53 14.3113 135.78 14.3113 133.155V111.782H14.4336Z" fill="#222222"/>
<path d="M35.1351 144.904V111.782H59.2319V117.406H41.7403V124.781H58.0087V130.405H41.7403V139.405H59.8435V145.029H35.1351V144.904Z" fill="#222222"/>
<path d="M80.4478 144.904V117.406H70.7847V111.782H96.5939V117.406H86.9307V144.904H80.4478Z" fill="#222222"/>
<path fill-rule="evenodd" clip-rule="evenodd" d="M133.816 144.904H140.911L127.945 111.782H120.973L108.374 144.904H115.346L118.037 137.405H131.003L133.816 144.904ZM124.276 119.531L128.801 131.78H119.872L124.276 119.531Z" fill="#222222"/>
<path fill-rule="evenodd" clip-rule="evenodd" d="M150.726 111.782V144.904H157.331V131.03H158.677C160.145 131.03 161.245 131.155 161.979 131.405C162.713 131.655 163.325 132.155 163.936 132.78C164.548 133.405 165.649 135.03 167.361 137.655L172.132 144.904H179.96L176.046 138.405C174.578 135.78 173.355 134.03 172.376 133.03C171.398 132.03 170.297 131.155 168.829 130.28C171.643 129.781 173.722 128.781 175.19 127.156C176.658 125.531 177.392 123.531 177.392 121.031C177.392 119.031 176.902 117.281 175.924 115.782C174.945 114.282 173.722 113.282 172.132 112.657C170.542 112.032 167.973 111.782 164.548 111.782H150.726ZM162.102 125.781H157.209V117.406H162.346C165.037 117.406 166.627 117.406 167.117 117.531C168.218 117.656 168.952 118.156 169.563 118.781C170.175 119.531 170.419 120.406 170.419 121.531C170.419 122.531 170.297 123.406 169.808 124.031C169.318 124.656 168.707 125.156 167.973 125.406C167.239 125.656 165.282 125.781 162.102 125.781Z" fill="#222222"/>
<path d="M195.295 144.904V117.406H185.631V111.782H211.441V117.406H201.9V144.904H195.295Z" fill="#222222"/>
<path d="M3.61643 165.095V156.12H0.116638V154.885H8.51615V156.12H5.01635V165.095H3.61643Z" fill="#333333"/>
<path fill-rule="evenodd" clip-rule="evenodd" d="M16.449 153.427H15.5157L13.8825 152.305H15.5157L16.449 153.427ZM14.8158 154.549L15.7491 154.1L16.6823 154.549H17.9656L16.449 153.651H15.0491L13.5325 154.549H14.8158ZM15.0491 154.885L10.966 165.095H12.3659L13.5325 161.954H17.9656L19.2489 165.095H20.8821L16.5657 154.885H15.0491ZM17.6156 160.944H13.9992L15.1658 157.915C15.3991 157.354 15.6324 156.68 15.7491 156.007C15.8657 156.568 16.099 157.241 16.449 158.139L17.6156 160.944Z" fill="#333333"/>
<path d="M24.1486 165.095V154.885H26.2484L28.815 162.178C29.0483 162.851 29.1649 163.412 29.2816 163.749C29.3983 163.412 29.6316 162.851 29.8649 162.066L32.4314 154.998H34.298V165.207H32.898V156.568L29.7482 165.095H28.465L25.4318 156.344V165.095H24.1486Z" fill="#333333"/>
<path d="M44.914 165.095V154.885H46.3139L51.9136 162.963V154.885H53.3135V165.095H51.9136L46.3139 157.017V165.095H44.914Z" fill="#333333"/>
<path d="M57.8633 165.095V154.885H59.2632V159.037H64.7462V154.885H66.1461V165.095H64.7462V160.271H59.2632V165.095H57.8633Z" fill="#333333"/>
<path fill-rule="evenodd" clip-rule="evenodd" d="M71.5124 154.212H72.5624L71.6291 152.305H69.8792L71.5124 154.212ZM70.8125 154.885V165.095H72.2124V154.885H70.8125Z" fill="#333333"/>
<path d="M76.8788 165.095V154.885H78.2787L83.8784 162.963V154.885H85.2783V165.095H83.8784L78.2787 157.017V165.095H76.8788Z" fill="#333333"/>
<path d="M96.011 165.095V154.885H97.4109L103.011 162.963V154.885H104.41V165.095H103.011L97.4109 157.017V165.095H96.011Z" fill="#333333"/>
<path d="M113.86 161.056V159.934H118.41V163.749C117.71 164.31 117.01 164.646 116.31 164.983C115.61 165.32 114.793 165.432 114.093 165.432C113.043 165.432 112.11 165.207 111.293 164.759C110.477 164.31 109.777 163.749 109.31 162.851C108.844 162.066 108.61 161.168 108.61 160.159C108.61 159.149 108.844 158.251 109.31 157.354C109.777 156.456 110.36 155.895 111.177 155.446C111.993 154.998 112.927 154.773 113.977 154.773C114.793 154.773 115.493 154.885 116.077 155.11C116.66 155.334 117.243 155.671 117.593 156.119C117.943 156.568 118.176 157.129 118.41 157.802L117.126 158.139C117.01 157.578 116.776 157.241 116.543 156.905C116.31 156.568 115.96 156.344 115.493 156.232C115.027 156.007 114.56 156.007 113.977 156.007C113.277 156.007 112.81 156.119 112.343 156.344C111.877 156.568 111.527 156.793 111.177 157.129C110.943 157.466 110.71 157.802 110.477 158.139C110.244 158.812 110.127 159.485 110.127 160.159C110.127 161.056 110.244 161.842 110.594 162.402C110.943 162.963 111.41 163.524 111.993 163.749C112.577 164.085 113.277 164.198 113.977 164.198C114.56 164.198 115.143 164.085 115.727 163.861C116.31 163.637 116.776 163.412 117.01 163.188V161.056H113.86Z" fill="#333333"/>
<path d="M122.609 165.095V154.885H124.009V159.037H129.492V154.885H130.892V165.095H129.492V160.271H124.009V165.095H122.609Z" fill="#333333"/>
<path fill-rule="evenodd" clip-rule="evenodd" d="M139.292 154.1L138.359 154.549H137.075L138.592 153.651H139.992L141.508 154.549H140.225L139.292 154.1ZM135.442 165.095V154.885H143.142V156.119H136.842V159.261H142.675V160.495H136.842V163.973H143.375V165.207H135.442V165.095ZM138.708 165.881V167.339H140.225V165.881H138.708Z" fill="#333333"/>
<path d="M156.091 165.095V156.12H152.591V154.885H160.991V156.12H157.491V165.095H156.091Z" fill="#333333"/>
<path d="M164.724 165.095V154.885H166.124V159.037H171.607V154.885H173.006V165.095H171.607V160.271H166.124V165.095H164.724Z" fill="#333333"/>
<path d="M184.439 154.885H185.839V160.832C185.839 161.842 185.722 162.627 185.489 163.3C185.256 163.861 184.789 164.422 184.206 164.759C183.623 165.095 182.689 165.32 181.756 165.32C180.706 165.32 179.889 165.207 179.306 164.871C178.723 164.534 178.256 164.085 177.906 163.412C177.673 162.739 177.556 161.954 177.556 160.832V154.885H178.956V160.832C178.956 161.729 179.073 162.403 179.19 162.851C179.306 163.3 179.656 163.637 180.123 163.861C180.589 164.085 181.056 164.198 181.639 164.198C182.689 164.198 183.389 163.973 183.856 163.524C184.323 163.076 184.556 162.178 184.556 160.944V154.885H184.439Z" fill="#333333"/>
<path fill-rule="evenodd" clip-rule="evenodd" d="M193.072 154.549L194.005 154.1L194.939 154.549H196.222L194.705 153.651H193.305L191.789 154.549H193.072ZM193.305 154.885L189.222 165.095H190.622L191.789 161.954H196.222L197.505 165.095H199.138L194.822 154.885H193.305ZM192.255 160.944H195.872L194.705 158.139C194.355 157.241 194.122 156.568 194.005 156.007C193.889 156.68 193.655 157.354 193.422 157.915L192.255 160.944ZM193.305 165.881V167.339H194.822V165.881H193.305Z" fill="#333333"/>
<path d="M205.088 165.095V156.12H201.588V154.885H209.988V156.12H206.488V165.095H205.088Z" fill="#333333"/>
<defs>
<linearGradient id="paint0_linear" x1="61.488" y1="52.7459" x2="105.691" y2="98.7402" gradientUnits="userSpaceOnUse">
<stop offset="0.1353" stop-color="#2AA9E1"/>
<stop offset="0.7426" stop-color="#7C57A4"/>
</linearGradient>
<linearGradient id="paint1_linear" x1="66.9084" y1="89.5885" x2="144.774" y2="89.5885" gradientUnits="userSpaceOnUse">
<stop stop-color="#EF58A0"/>
<stop offset="1" stop-color="#84489C"/>
</linearGradient>
<linearGradient id="paint2_linear" x1="30.5455" y1="22.135" x2="56.9485" y2="86.293" gradientUnits="userSpaceOnUse">
<stop stop-color="#7ABB58"/>
<stop offset="0.9617" stop-color="#59B25C"/>
<stop offset="1" stop-color="#FFC429"/>
</linearGradient>
</defs>
</svg>
