<svg width="170" height="47" viewBox="0 0 170 47" fill="none" xmlns="http://www.w3.org/2000/svg">
<path d="M33.7242 18.2891C34.0516 18.7285 34.2153 19.2777 34.2153 19.8819C34.2153 21.3648 33.0148 22.5731 31.5414 22.5731C30.068 22.5731 28.8675 21.3648 28.8675 19.8819C28.8675 18.4539 30.0134 17.2456 31.4323 17.1907C30.45 16.8611 29.3586 16.6964 28.2672 16.6964C22.7011 16.6964 18.1718 21.2549 18.1718 26.857C18.1718 32.4591 22.7011 37.0176 28.2672 37.0176C33.8333 37.0176 38.3626 32.4591 38.3626 26.857C38.3081 23.2321 36.4527 20.1016 33.7242 18.2891Z" fill="url(#paint0_linear)"/>
<path d="M35.5796 2.25182C35.5796 2.25182 42.4554 9.55648 42.4554 17.3005C42.4554 15.1586 42.5099 39.3793 42.5645 39.6539H25.1567C25.1567 39.6539 18.3355 39.599 15.225 33.3378C13.1513 29.2187 13.8062 24.3306 16.5892 20.6508C18.2263 18.4539 20.4091 16.6415 23.1376 15.4881C24.6656 14.829 26.1935 14.3896 27.7215 14.2249C24.7201 13.7306 21.5551 14.0601 18.4992 15.3782C17.1895 15.9275 15.989 16.6964 14.8976 17.5202C14.8976 17.4104 14.9521 17.3005 14.9521 17.2456C14.9521 17.2456 14.8976 17.4104 14.7339 17.6301C9.2223 22.0788 7.09408 29.713 9.98628 36.4135C12.3328 41.8508 17.4078 45.6404 22.9739 46.1896H24.229H49.1129V17.0808C49.1129 17.1358 47.4758 5.76684 35.5796 2.25182Z" fill="url(#paint1_linear)"/>
<path d="M19.8635 4.61347C30.8866 4.61347 39.7815 13.6207 39.7815 24.715C39.7815 25.7036 39.7269 26.6922 39.5632 27.6808C40.4363 25.429 40.9274 22.9575 40.9274 20.4311C40.9274 9.33679 31.978 0.329536 21.0094 0.329536C11.0231 0.329536 2.72851 7.79897 1.30969 17.4653C4.14733 9.94094 11.4051 4.61347 19.8635 4.61347Z" fill="url(#paint2_linear)"/>
<path d="M30.832 11.4238C30.832 11.3689 30.832 11.3689 30.832 11.4238C29.5769 10.6 28.1581 9.88601 26.521 9.33679C26.4664 9.33679 26.4118 9.28187 26.3027 9.28187C26.1935 9.22695 26.0298 9.22695 25.9207 9.17202C25.757 9.1171 25.5933 9.06218 25.4841 9.06218C25.4296 9.06218 25.375 9.00726 25.2659 9.00726C25.0476 8.95233 24.8293 8.89741 24.611 8.84249C24.5564 8.84249 24.5564 8.84249 24.5019 8.84249C24.2836 8.78757 24.0107 8.73264 23.7925 8.67772H23.7379C22.4828 8.45803 21.2277 8.29327 19.8634 8.29327C8.89489 8.29327 0 16.8062 0 27.2964C0 35.8643 5.89355 43.0591 14.0245 45.4757C8.67661 42.0705 5.12957 36.2487 5.12957 29.658C5.12957 26.2529 6.05726 23.0124 7.74892 20.2114C12.1145 12.9067 20.9003 9.72125 29.0312 12.1378C31.6505 12.9067 34.2153 14.3347 36.2344 16.9161C36.289 16.8611 34.7064 13.8404 30.832 11.4238Z" fill="#F4933C"/>
<path d="M67.6524 13.9036H71.0162V24.7258C71.0162 26.143 70.8892 27.2381 70.6354 28.0111C70.318 28.9773 69.6834 29.8148 68.8583 30.3945C67.9697 30.9743 66.8273 31.2964 65.4311 31.2964C63.7809 31.2964 62.5116 30.8455 61.623 29.8792C60.7345 28.9129 60.2902 27.5602 60.2902 25.692L63.4636 25.3055C63.527 26.2718 63.654 26.9804 63.9078 27.3669C64.2887 28.0111 64.8599 28.2688 65.558 28.2688C66.3196 28.2688 66.8273 28.0755 67.1447 27.6246C67.462 27.1736 67.5889 26.2718 67.5889 24.919V13.9036H67.6524Z" fill="#010101"/>
<path d="M78.3938 30.9743V13.9036H90.8968V16.8024H81.821V20.603H90.2622V23.5018H81.821V28.1399H91.2142V31.0387H78.3938V30.9743Z" fill="#010101"/>
<path d="M101.905 30.9743V16.8024H96.8912V13.9036H110.283V16.8024H105.269V30.9743H101.905Z" fill="#010101"/>
<path fill-rule="evenodd" clip-rule="evenodd" d="M129.596 30.9743H133.277L126.55 13.9036H122.932L116.395 30.9743H120.013L121.409 27.1092H128.137L129.596 30.9743ZM124.646 17.8975L126.994 24.2104H122.361L124.646 17.8975Z" fill="#010101"/>
<path fill-rule="evenodd" clip-rule="evenodd" d="M138.37 13.9036V30.9743H141.797V23.8239H142.496C143.257 23.8239 143.828 23.8883 144.209 24.0172C144.59 24.146 144.907 24.4037 145.225 24.7258C145.542 25.0479 146.113 25.8853 147.002 27.2381L149.477 30.9743H153.539L151.508 27.6246C150.746 26.2718 150.112 25.37 149.604 24.8546C149.096 24.3393 148.525 23.8883 147.763 23.4374C149.223 23.1797 150.302 22.6644 151.064 21.827C151.825 20.9895 152.206 19.9589 152.206 18.6705C152.206 17.6398 151.952 16.738 151.444 15.965C150.937 15.1919 150.302 14.6766 149.477 14.3545C148.652 14.0324 147.319 13.9036 145.542 13.9036H138.37ZM144.273 21.1184H141.734V16.8024H144.4C145.796 16.8024 146.621 16.8024 146.875 16.8668C147.446 16.9312 147.827 17.1889 148.144 17.511C148.462 17.8975 148.588 18.3484 148.588 18.9282C148.588 19.4435 148.525 19.8944 148.271 20.2165C148.017 20.5386 147.7 20.7963 147.319 20.9251C146.938 21.054 145.923 21.1184 144.273 21.1184Z" fill="#010101"/>
<path d="M161.495 30.9743V16.8024H156.482V13.9036H169.873V16.8024H164.923V30.9743H161.495Z" fill="#010101"/>
<path d="M62.0397 41.3802V36.7543H60.2238V36.1182H64.5821V36.7543H62.7661V41.3802H62.0397Z" fill="#333333"/>
<path fill-rule="evenodd" clip-rule="evenodd" d="M68.6982 35.3665H68.2139L67.3665 34.7883H68.2139L68.6982 35.3665ZM67.8507 35.9448L68.335 35.7135L68.8192 35.9448H69.4851L68.6982 35.4822H67.9718L67.1849 35.9448H67.8507ZM67.9718 36.1182L65.8532 41.3802H66.5796L67.1849 39.7611H69.4851L70.1509 41.3802H70.9983L68.7587 36.1182H67.9718ZM69.3035 39.2407H67.427L68.0323 37.6795C68.1534 37.3904 68.2745 37.0434 68.335 36.6965C68.3955 36.9856 68.5166 37.3325 68.6982 37.7951L69.3035 39.2407Z" fill="#333333"/>
<path d="M72.6932 41.3802V36.1182H73.7828L75.1145 39.8768C75.2355 40.2237 75.2961 40.5128 75.3566 40.6863C75.4171 40.5128 75.5382 40.2237 75.6593 39.8189L76.9909 36.176H77.9594V41.438H77.2331V36.9856L75.5987 41.3802H74.9329L73.3591 36.8699V41.3802H72.6932Z" fill="#333333"/>
<path d="M83.4677 41.3802V36.1182H84.1941L87.0996 40.2815V36.1182H87.826V41.3802H87.0996L84.1941 37.2169V41.3802H83.4677Z" fill="#333333"/>
<path d="M90.1867 41.3802V36.1182H90.9131V38.2577H93.758V36.1182H94.4844V41.3802H93.758V38.8938H90.9131V41.3802H90.1867Z" fill="#333333"/>
<path fill-rule="evenodd" clip-rule="evenodd" d="M97.2688 35.7713H97.8136L97.3294 34.7883H96.4214L97.2688 35.7713ZM96.9056 36.1182V41.3802H97.632V36.1182H96.9056Z" fill="#333333"/>
<path d="M100.053 41.3802V36.1182H100.78L103.685 40.2815V36.1182H104.411V41.3802H103.685L100.78 37.2169V41.3802H100.053Z" fill="#333333"/>
<path d="M109.98 41.3802V36.1182H110.707L113.612 40.2815V36.1182H114.339V41.3802H113.612L110.707 37.2169V41.3802H109.98Z" fill="#333333"/>
<path d="M119.242 39.2985V38.7203H121.602V40.6863C121.239 40.9754 120.876 41.1489 120.513 41.3224C120.15 41.4958 119.726 41.5537 119.363 41.5537C118.818 41.5537 118.334 41.438 117.91 41.2067C117.486 40.9754 117.123 40.6863 116.881 40.2237C116.639 39.819 116.518 39.3564 116.518 38.8359C116.518 38.3155 116.639 37.8529 116.881 37.3904C117.123 36.9278 117.426 36.6386 117.849 36.4074C118.273 36.1761 118.757 36.0604 119.302 36.0604C119.726 36.0604 120.089 36.1182 120.392 36.2339C120.694 36.3495 120.997 36.523 121.179 36.7543C121.36 36.9856 121.481 37.2747 121.602 37.6216L120.936 37.7951C120.876 37.506 120.755 37.3325 120.634 37.1591C120.513 36.9856 120.331 36.8699 120.089 36.8121C119.847 36.6965 119.605 36.6965 119.302 36.6965C118.939 36.6965 118.697 36.7543 118.455 36.8699C118.213 36.9856 118.031 37.1012 117.849 37.2747C117.728 37.4482 117.607 37.6216 117.486 37.7951C117.365 38.1421 117.305 38.489 117.305 38.8359C117.305 39.2985 117.365 39.7033 117.547 39.9924C117.728 40.2815 117.97 40.5707 118.273 40.6863C118.576 40.8598 118.939 40.9176 119.302 40.9176C119.605 40.9176 119.907 40.8598 120.21 40.7441C120.513 40.6285 120.755 40.5128 120.876 40.3972V39.2985H119.242Z" fill="#333333"/>
<path d="M123.781 41.3802V36.1182H124.508V38.2577H127.353V36.1182H128.079V41.3802H127.353V38.8938H124.508V41.3802H123.781Z" fill="#333333"/>
<path fill-rule="evenodd" clip-rule="evenodd" d="M132.437 35.7135L131.953 35.9448H131.287L132.074 35.4822H132.801L133.587 35.9448H132.922L132.437 35.7135ZM130.44 41.3802V36.1182H134.435V36.7543H131.166V38.3733H134.193V39.0094H131.166V40.8019H134.556V41.438H130.44V41.3802ZM132.135 41.7849V42.5367H132.922V41.7849H132.135Z" fill="#333333"/>
<path d="M141.154 41.3802V36.7543H139.338V36.1182H143.696V36.7543H141.88V41.3802H141.154Z" fill="#333333"/>
<path d="M145.633 41.3802V36.1182H146.359V38.2577H149.204V36.1182H149.931V41.3802H149.204V38.8938H146.359V41.3802H145.633Z" fill="#333333"/>
<path d="M155.863 36.1182H156.589V39.1829C156.589 39.7033 156.529 40.1081 156.408 40.455C156.287 40.7441 156.044 41.0332 155.742 41.2067C155.439 41.3802 154.955 41.4958 154.471 41.4958C153.926 41.4958 153.502 41.438 153.2 41.2645C152.897 41.0911 152.655 40.8598 152.473 40.5128C152.352 40.1659 152.292 39.7611 152.292 39.1829V36.1182H153.018V39.1829C153.018 39.6455 153.078 39.9924 153.139 40.2237C153.2 40.455 153.381 40.6285 153.623 40.7441C153.865 40.8598 154.107 40.9176 154.41 40.9176C154.955 40.9176 155.318 40.8019 155.56 40.5707C155.802 40.3394 155.923 39.8768 155.923 39.2407V36.1182H155.863Z" fill="#333333"/>
<path fill-rule="evenodd" clip-rule="evenodd" d="M160.342 35.9448L160.826 35.7135L161.311 35.9448H161.977L161.19 35.4822H160.463L159.676 35.9448H160.342ZM160.463 36.1182L158.345 41.3802H159.071L159.676 39.7611H161.977L162.642 41.3802H163.49L161.25 36.1182H160.463ZM159.918 39.2407H161.795L161.19 37.7951C161.008 37.3325 160.887 36.9856 160.826 36.6965C160.766 37.0434 160.645 37.3903 160.524 37.6795L159.918 39.2407ZM160.463 41.7849V42.5367H161.25V41.7849H160.463Z" fill="#333333"/>
<path d="M166.577 41.3802V36.7543H164.761V36.1182H169.119V36.7543H167.303V41.3802H166.577Z" fill="#333333"/>
<defs>
<linearGradient id="paint0_linear" x1="5.90415" y1="27.1841" x2="28.6786" y2="51.0422" gradientUnits="userSpaceOnUse">
<stop offset="0.1353" stop-color="#2AA9E1"/>
<stop offset="0.7426" stop-color="#7C57A4"/>
</linearGradient>
<linearGradient id="paint1_linear" x1="8.71666" y1="46.172" x2="49.1187" y2="46.172" gradientUnits="userSpaceOnUse">
<stop stop-color="#EF58A0"/>
<stop offset="1" stop-color="#84489C"/>
</linearGradient>
<linearGradient id="paint2_linear" x1="-10.1509" y1="11.4079" x2="3.39144" y2="44.5379" gradientUnits="userSpaceOnUse">
<stop stop-color="#7ABB58"/>
<stop offset="0.9617" stop-color="#59B25C"/>
<stop offset="1" stop-color="#FFC429"/>
</linearGradient>
</defs>
</svg>
