<?xml version="1.0" encoding="UTF-8"?>
<svg width="25px" height="16px" viewBox="0 0 25 16" version="1.1" xmlns="http://www.w3.org/2000/svg" xmlns:xlink="http://www.w3.org/1999/xlink">
    <!-- Generator: Sketch 54.1 (76490) - https://sketchapp.com -->
    <title>Shape 2 Copy 2</title>
    <desc>Created with Sketch.</desc>
    <g id="Page-1" stroke="none" stroke-width="1" fill="none" fill-rule="evenodd">
        <g id="Shape-2-Copy-2" fill="#B24F9D" fill-rule="nonzero">
            <path d="M12.4789792,1.51262976 C15.6686851,1.51262976 18.3683391,2.966609 20.0714965,4.18654844 C22.0893166,5.63183391 23.1277249,7.02984429 23.3969723,7.56306228 C23.1274221,8.09623702 22.0893599,9.4942474 20.0714965,10.9395761 C18.3683391,12.1594723 15.6686851,13.6134516 12.4789792,13.6134516 C9.28927336,13.6134516 6.58966263,12.1594723 4.88646194,10.9395761 C2.8682526,9.4942474 1.83023356,8.09623702 1.56059689,7.56306228 C1.83023356,7.02984429 2.8682526,5.63183391 4.88607266,4.18654844 C6.58966263,2.966609 9.28927336,1.51262976 12.4789792,1.51262976 L12.4789792,1.51262976 Z M12.4789792,3.19744231e-14 C5.58719723,3.19744231e-14 3.64153152e-13,6.05043253 3.64153152e-13,7.56306228 C3.64153152e-13,9.07569204 5.58719723,15.1260813 12.4789792,15.1260813 C19.3708045,15.1260813 24.9580017,9.07564879 24.9580017,7.56306228 C24.9580017,6.05047578 19.3708478,3.19744231e-14 12.4789792,3.19744231e-14 L12.4789792,3.19744231e-14 Z M12.4789792,3.02525952 C9.97296713,3.02525952 7.94117647,5.05705017 7.94117647,7.56306228 C7.94117647,10.0690311 9.97296713,12.1008651 12.4789792,12.1008651 C14.9849913,12.1008651 17.016782,10.0690311 17.016782,7.56306228 C17.016782,5.05705017 14.9849913,3.02525952 12.4789792,3.02525952 Z M11.2571799,7.56306228 C10.1968426,7.56306228 9.33728374,6.70350346 9.33728374,5.64316609 C9.33728374,4.58282872 10.1968426,3.72331315 11.2571799,3.72331315 C12.3175173,3.72331315 13.1770761,4.58287197 13.1770761,5.64316609 C13.1770761,6.70350346 12.3175173,7.56306228 11.2571799,7.56306228 Z" id="Shape"></path>
        </g>
    </g>
</svg>