<?xml version="1.0" encoding="UTF-8"?>
<svg width="340px" height="30px" viewBox="0 0 340 30" version="1.1" xmlns="http://www.w3.org/2000/svg" xmlns:xlink="http://www.w3.org/1999/xlink">
    <!-- Generator: Sketch 54.1 (76490) - https://sketchapp.com -->
    <title>payment</title>
    <desc>Created with Sketch.</desc>
    <defs>
        <rect id="path-1" x="0" y="0" width="50.625" height="30" rx="4"></rect>
        <rect id="path-3" x="0" y="0" width="50.625" height="30" rx="4"></rect>
        <rect id="path-5" x="0" y="0" width="50.625" height="30" rx="4"></rect>
        <path d="M1.46530152,3.33664637 L2.24739075,3.33664637 L2.24739075,9.05251245 L1.46530152,9.05251245 L1.46530152,3.33664637 Z M3.50418091,3.33664637 L4.41856385,3.33664637 L7.30567933,7.96692591 L7.30567933,3.33664637 L8.04107666,3.33664637 L8.04107666,9.05251245 L7.17338562,9.05251245 L4.24346924,4.4261239 L4.24346924,9.05251245 L3.50418091,9.05251245 L3.50418091,3.33664637 Z M13.4184265,3.33664637 L13.4184265,4.01756983 L11.4923859,4.01756983 L11.4923859,9.05251245 L10.7064056,9.05251245 L10.7064056,4.01756983 L8.78036499,4.01756983 L8.78036499,3.33664637 L13.4184265,3.33664637 Z M14.2005158,3.33664637 L18.3677673,3.33664637 L18.3677673,4.03702478 L14.955368,4.03702478 L14.955368,5.77240686 L18.1109619,5.77240686 L18.1109619,6.43387537 L14.955368,6.43387537 L14.955368,8.37158899 L18.4261322,8.37158899 L18.4261322,9.05251245 L14.2005158,9.05251245 L14.2005158,3.33664637 Z M22.0992279,5.95528345 C22.4623889,5.95528345 22.7496709,5.88265234 22.9610825,5.73738794 C23.172494,5.59212354 23.2781982,5.33013276 23.2781982,4.95140772 C23.2781982,4.5441486 23.1303421,4.266594 22.8346252,4.1187356 C22.6763908,4.04091539 22.4649824,4.00200586 22.2003937,4.00200586 L20.309372,4.00200586 L20.309372,5.95528345 L22.0992279,5.95528345 Z M19.5350647,3.33664637 L22.1809387,3.33664637 C22.6167319,3.33664637 22.9759965,3.40019859 23.2587433,3.52730494 C23.7957028,3.7711416 24.0641785,4.22119509 24.0641785,4.87747889 C24.0641785,5.21988782 23.9934928,5.50003639 23.8521194,5.71793299 C23.7107461,5.93582958 23.512956,6.11092244 23.2587433,6.2432168 C23.4818279,6.33400705 23.6497873,6.45332959 23.7626267,6.60118799 C23.875466,6.7490464 23.9383697,6.98898846 23.9513397,7.32102137 L23.9785767,8.08754663 C23.9863587,8.30544323 24.0045165,8.46756624 24.0330505,8.57392054 C24.0797427,8.75550103 24.1627497,8.8722296 24.282074,8.92410974 L24.282074,9.05251245 L23.3326721,9.05251245 C23.3067321,9.00322632 23.2859803,8.9396741 23.2704163,8.86185389 C23.2548522,8.78403367 23.2418824,8.63358352 23.2315064,8.4104989 L23.1848145,7.45720606 C23.1666564,7.08366903 23.0278791,6.8333511 22.7684784,6.70624475 C22.62062,6.63620656 22.3884598,6.60118799 22.071991,6.60118799 L20.309372,6.60118799 L20.309372,9.05251245 L19.5350647,9.05251245 L19.5350647,3.33664637 Z M25.1964569,3.33664637 L26.1108398,3.33664637 L28.9979553,7.96692591 L28.9979553,3.33664637 L29.7333527,3.33664637 L29.7333527,9.05251245 L28.8656616,9.05251245 L25.9357452,4.4261239 L25.9357452,9.05251245 L25.1964569,9.05251245 L25.1964569,3.33664637 Z M31.0251617,3.33664637 L35.1924133,3.33664637 L35.1924133,4.03702478 L31.780014,4.03702478 L31.780014,5.77240686 L34.9356079,5.77240686 L34.9356079,6.43387537 L31.780014,6.43387537 L31.780014,8.37158899 L35.2507782,8.37158899 L35.2507782,9.05251245 L31.0251617,9.05251245 L31.0251617,3.33664637 Z M40.4257965,3.33664637 L40.4257965,4.01756983 L38.4997559,4.01756983 L38.4997559,9.05251245 L37.7137756,9.05251245 L37.7137756,4.01756983 L35.787735,4.01756983 L35.787735,3.33664637 L40.4257965,3.33664637 Z" id="path-7"></path>
        <path d="M4.93606568,13.9020539 C5.26291057,13.9020539 5.51711946,13.8566594 5.69869995,13.7658692 C5.98404074,13.6231988 6.12670899,13.3663959 6.12670899,12.9954529 C6.12670899,12.6219159 5.97496185,12.370301 5.67146302,12.2406006 C5.50025855,12.1679684 5.24604966,12.1316529 4.90882874,12.1316529 L3.52752686,12.1316529 L3.52752686,13.9020539 L4.93606568,13.9020539 Z M5.19676209,16.5401459 C5.67146539,16.5401459 6.00997824,16.4026656 6.21231079,16.1277008 C6.33941714,15.9539024 6.40296936,15.7437909 6.40296936,15.4973603 C6.40296936,15.0823191 6.21750064,14.7995766 5.84655762,14.6491242 C5.64941308,14.56871 5.38871928,14.5285034 5.06446839,14.5285034 L3.52752686,14.5285034 L3.52752686,16.5401459 L5.19676209,16.5401459 Z M2.76878357,11.4857483 L5.22399903,11.4857483 C5.89325286,11.4857483 6.36924603,11.6854839 6.6519928,12.084961 C6.81800926,12.3210156 6.90101624,12.5933823 6.90101624,12.9020691 C6.90101624,13.2626361 6.79855449,13.5583485 6.59362793,13.7892151 C6.48727364,13.9111334 6.33422952,14.0226741 6.13449097,14.1238404 C6.42761377,14.2353827 6.64680409,14.3611901 6.79206848,14.5012665 C7.04887519,14.7502912 7.17727661,15.093992 7.17727661,15.5323792 C7.17727661,15.9007282 7.06184503,16.2340531 6.8309784,16.5323639 C6.48597545,16.9785331 5.93735118,17.2016144 5.18508911,17.2016144 L2.76878357,17.2016144 L2.76878357,11.4857483 Z M11.0371399,14.8592377 L10.1694489,12.3339844 L9.24728394,14.8592377 L11.0371399,14.8592377 Z M9.76478577,11.4857483 L10.6402588,11.4857483 L12.7141571,17.2016144 L11.865921,17.2016144 L11.2861633,15.4895783 L9.02549744,15.4895783 L8.40682984,17.2016144 L7.61306763,17.2016144 L9.76478577,11.4857483 Z M13.4184265,11.4857483 L14.3328095,11.4857483 L17.2199249,16.1160279 L17.2199249,11.4857483 L17.9553223,11.4857483 L17.9553223,17.2016144 L17.0876312,17.2016144 L14.1577148,12.5752259 L14.1577148,17.2016144 L13.4184265,17.2016144 L13.4184265,11.4857483 Z M19.1732025,11.4857483 L19.9280548,11.4857483 L19.9280548,14.271698 L22.7140045,11.4857483 L23.7840271,11.4857483 L21.4066315,13.7892151 L23.850174,17.2016144 L22.8424072,17.2016144 L20.8424377,14.3339539 L19.9280548,15.2094269 L19.9280548,17.2016144 L19.1732025,17.2016144 L19.1732025,11.4857483 Z M24.6633911,11.4857483 L25.4454804,11.4857483 L25.4454804,17.2016144 L24.6633911,17.2016144 L24.6633911,11.4857483 Z M26.7022705,11.4857483 L27.6166534,11.4857483 L30.5037689,16.1160279 L30.5037689,11.4857483 L31.2391663,11.4857483 L31.2391663,17.2016144 L30.3714752,17.2016144 L27.4415588,12.5752259 L27.4415588,17.2016144 L26.7022705,17.2016144 L26.7022705,11.4857483 Z M34.9278259,11.3378907 C35.4647854,11.3378907 35.9291057,11.4416494 36.3208008,11.6491699 C36.8888883,11.9474808 37.2364801,12.4701654 37.3635864,13.2172394 L36.5970612,13.2172394 C36.5036769,12.7996043 36.3104263,12.4954615 36.0173035,12.304802 C35.7241807,12.1141424 35.3545402,12.0188141 34.908371,12.0188141 C34.3791935,12.0188141 33.9336795,12.2172527 33.5718155,12.6141358 C33.2099515,13.0110189 33.0290222,13.6024436 33.0290222,14.3884278 C33.0290222,15.0680576 33.1781754,15.6212213 33.4764862,16.0479355 C33.774797,16.4746497 34.2611661,16.6880036 34.9356079,16.6880036 C35.4518153,16.6880036 35.8791716,16.5382019 36.2176895,16.2385941 C36.5562074,15.9389863 36.7293548,15.4545627 36.7371368,14.7853089 L34.9472809,14.7853089 L34.9472809,14.1432953 L37.4569702,14.1432953 L37.4569702,17.2016144 L36.9589233,17.2016144 L36.7721558,16.4662171 C36.510161,16.7541519 36.2780009,16.9538874 36.0756683,17.0654297 C35.7358534,17.2573862 35.3039577,17.3533631 34.7799683,17.3533631 C34.1029324,17.3533631 33.5205865,17.1341728 33.0329132,16.6957855 C32.5011418,16.145856 32.23526,15.3910113 32.23526,14.4312287 C32.23526,13.47404 32.4946568,12.7127104 33.0134583,12.1472168 C33.5063196,11.6076633 34.1444358,11.3378907 34.9278259,11.3378907 Z" id="path-8"></path>
        <rect id="path-9" x="0" y="0" width="49.0909091" height="30" rx="4"></rect>
        <linearGradient x1="-57.5458871%" y1="50.1046875%" x2="232.407984%" y2="50.1046875%" id="linearGradient-11">
            <stop stop-color="#007940" offset="0%"></stop>
            <stop stop-color="#00873F" offset="22.85%"></stop>
            <stop stop-color="#40A737" offset="74.33%"></stop>
            <stop stop-color="#5CB531" offset="100%"></stop>
        </linearGradient>
        <linearGradient x1="0.182544543%" y1="49.9583524%" x2="100.273469%" y2="49.9583524%" id="linearGradient-12">
            <stop stop-color="#007940" offset="0%"></stop>
            <stop stop-color="#00873F" offset="22.85%"></stop>
            <stop stop-color="#40A737" offset="74.33%"></stop>
            <stop stop-color="#5CB531" offset="100%"></stop>
        </linearGradient>
        <linearGradient x1="-62.8149648%" y1="49.8288352%" x2="253.65625%" y2="49.8288352%" id="linearGradient-13">
            <stop stop-color="#007940" offset="0%"></stop>
            <stop stop-color="#00873F" offset="22.85%"></stop>
            <stop stop-color="#40A737" offset="74.33%"></stop>
            <stop stop-color="#5CB531" offset="100%"></stop>
        </linearGradient>
        <linearGradient x1="0.172076837%" y1="50.0041858%" x2="101.807183%" y2="50.0041858%" id="linearGradient-14">
            <stop stop-color="#1F286F" offset="0%"></stop>
            <stop stop-color="#004E94" offset="47.51%"></stop>
            <stop stop-color="#0066B1" offset="82.61%"></stop>
            <stop stop-color="#006FBC" offset="100%"></stop>
        </linearGradient>
        <linearGradient x1="-0.578841871%" y1="49.912603%" x2="98.1287584%" y2="49.912603%" id="linearGradient-15">
            <stop stop-color="#6C2C2F" offset="0%"></stop>
            <stop stop-color="#882730" offset="17.35%"></stop>
            <stop stop-color="#BE1833" offset="57.31%"></stop>
            <stop stop-color="#DC0436" offset="85.85%"></stop>
            <stop stop-color="#E60039" offset="100%"></stop>
        </linearGradient>
        <rect id="path-16" x="0" y="0" width="50.625" height="30" rx="4"></rect>
        <rect id="path-18" x="0" y="0" width="50.625" height="30" rx="4"></rect>
    </defs>
    <g id="Page-1" stroke="none" stroke-width="1" fill="none" fill-rule="evenodd">
        <g id="payment">
            <g id="cash" transform="translate(173.000000, 0.000000)">
                <g id="Rectangle-14-Copy-4">
                    <g id="path-1-Clipped">
                        <mask id="mask-2" fill="white">
                            <use xlink:href="#path-1"></use>
                        </mask>
                        <g id="path-1"></g>
                        <rect id="path-1" stroke="#E4E4E4" stroke-width="2" fill="#F3F3F3" fill-rule="nonzero" mask="url(#mask-2)" x="0" y="0" width="50.625" height="30" rx="4"></rect>
                    </g>
                </g>
                <g id="Group-2" transform="translate(15.937500, 2.727273)" fill-rule="nonzero">
                    <g id="Group">
                        <g id="#979797ff" fill="#979797">
                            <path d="M1.87309644,0 L18.75,0 L18.75,9.08961293 C18.123731,9.10023082 17.4967481,9.09099791 16.8702412,9.09422936 L16.8702412,11.8181818 L0,11.8181818 L0,1.81704545 L1.87309644,1.81704545 L1.87309644,0 L1.87309644,0 Z M2.81178617,0.908984375 C2.81107234,1.21067116 2.81154822,1.51258878 2.81154822,1.81427556 C6.27672906,1.81335227 9.74190994,1.81404475 13.2073287,1.81381392 C14.4275063,1.81819957 15.647922,1.81889205 16.8683376,1.8184304 C16.8678617,3.93947088 16.8714308,6.06051136 16.8702412,8.18155185 C17.181948,8.18201349 17.4936548,8.18201349 17.8053617,8.18155185 C17.8065514,5.7581321 17.804172,3.33471235 17.8065514,0.911292609 C16.8207488,0.906214488 15.8347081,0.910600145 14.8489055,0.908984375 C10.836453,0.908984375 6.82400063,0.9092152 2.81178617,0.908984375 L2.81178617,0.908984375 Z M0.937024112,2.7276456 C0.9375,3.28162287 0.936786168,3.83583096 0.9375,4.39003906 C1.72699873,4.12066762 2.37206536,3.49213424 2.65212563,2.7276456 C2.08058376,2.72695313 1.50880393,2.72718395 0.937024112,2.7276456 L0.937024112,2.7276456 Z M3.62936231,2.72833806 C3.47469861,3.31255326 3.16560914,3.85683594 2.7413547,4.29747869 C2.2580901,4.80182884 1.6244448,5.16791548 0.937262056,5.33987926 C0.937262056,6.32549716 0.936548224,7.31088424 0.9375,8.29650213 C1.53283629,8.44630682 2.0889118,8.73991477 2.54029188,9.14501064 C3.06828997,9.61542973 3.45114213,10.2356535 3.63055203,10.9087358 C6.83304251,10.9091975 10.035533,10.9094283 13.2382614,10.9087358 C13.3912596,10.3356002 13.6903553,9.799858 14.1034264,9.36406255 C14.5893083,8.8465554 15.2324714,8.47146662 15.9310755,8.29650213 C15.9315514,7.31111505 15.9313134,6.32572798 15.9313134,5.34034091 C15.4026015,5.20623225 14.9041085,4.96132813 14.4834232,4.62270952 C13.8773795,4.13913352 13.4333756,3.46674361 13.2394511,2.72879972 C10.0360088,2.72602983 6.83280457,2.72695313 3.62936231,2.72833806 L3.62936231,2.72833806 Z M14.2171637,2.72718395 C14.4950825,3.49167258 15.1411009,4.12228338 15.9313134,4.3884233 C15.9313134,3.83490767 15.9310755,3.28116122 15.9313134,2.7276456 C15.3600096,2.7267223 14.7884677,2.7276456 14.2171637,2.72718395 L14.2171637,2.72718395 Z M0.937262056,10.9089666 C1.50880393,10.9087358 2.08034581,10.9101207 2.65212563,10.9082742 C2.3723033,10.1433239 1.7262849,9.51663709 0.937737947,9.245419 C0.936548224,9.80008882 0.937262056,10.3545277 0.937262056,10.9089666 L0.937262056,10.9089666 Z M14.2162119,10.9089666 C14.7879918,10.9091975 15.3595336,10.9091975 15.9310755,10.9087358 C15.9313134,10.355451 15.9313134,9.80193536 15.9310755,9.24865055 C15.1401491,9.51317473 14.4965102,10.1458629 14.2162119,10.9089666 Z" id="Shape"></path>
                            <path d="M8.14102158,3.65417258 C8.7025698,3.5856179 9.28339149,3.71972656 9.76070747,4.01264205 C10.3027443,4.33971946 10.7077252,4.85076349 10.9578046,5.41535866 C11.3420844,6.3026456 11.3411326,7.34019886 10.9554251,8.22679333 C10.7926713,8.58987926 10.5690038,8.92872869 10.2841847,9.21310373 C9.94487625,9.55102982 9.51467325,9.807706 9.04187817,9.92473364 C8.53029822,10.0537642 7.97636422,10.0138316 7.48929251,9.81509236 C6.97057424,9.60665836 6.53323287,9.23133882 6.22342957,8.78007813 C5.44915927,7.66635298 5.42274746,6.11475497 6.14704949,4.97194603 C6.45494924,4.47982955 6.9068052,4.06480824 7.45479061,3.83536932 C7.67298541,3.74350142 7.90474302,3.68187145 8.14102158,3.65417258 L8.14102158,3.65417258 Z M8.22097081,4.56084872 C7.88784898,4.60978338 7.57733185,4.76743608 7.3308217,4.98810369 C6.98770622,5.29302202 6.75856599,5.70642755 6.6460184,6.14176136 C6.49777919,6.72482245 6.54227475,7.35681818 6.79187817,7.90779475 C6.9601047,8.2768821 7.22493654,8.61134588 7.57590419,8.83293679 C7.85358503,9.00882457 8.18742068,9.10900209 8.52054251,9.08799716 C8.9224302,9.06537642 9.30123731,8.87587003 9.58534266,8.60442116 C9.96367387,8.24549005 10.1925761,7.75545099 10.2727633,7.25179333 C10.3617545,6.68535156 10.2779981,6.0879794 10.0019828,5.57878196 C9.81400697,5.23208452 9.53347078,4.92555043 9.17679251,4.73650568 C8.8879283,4.58185369 8.54861993,4.51214489 8.22097081,4.56084872 Z" id="Shape"></path>
                        </g>
                        <g id="#f2f2f2ff" transform="translate(0.927982, 0.900213)" fill="#F2F2F2">
                            <path d="M1.88380393,0.00877130682 C5.8960184,0.00900213068 9.90847078,0.00877130682 13.9209232,0.00877130682 C14.9067259,0.0103870739 15.8927665,0.00600142045 16.8785692,0.0110795455 C16.8761897,2.43449929 16.8785692,4.85791904 16.8773795,7.28133878 C16.5656726,7.28180043 16.2539658,7.28180043 15.9422588,7.28133878 C15.9434486,5.16029829 15.9398795,3.03925781 15.9403553,0.918217327 C14.7199397,0.918678973 13.4995241,0.917986509 12.2793464,0.913600855 C8.81392766,0.913831673 5.34874683,0.913139209 1.88356599,0.9140625 C1.88356599,0.61237571 1.8830901,0.310458096 1.88380393,0.00877130682 Z" id="Shape"></path>
                            <path d="M0.00904187817,1.82743253 C0.5808217,1.82697088 1.15260152,1.82674005 1.7241434,1.82743253 C1.44408312,2.59192116 0.799016497,3.22045455 0.00951776653,3.48982599 C0.00880393401,2.9356179 0.00951776653,2.3814098 0.00904187817,1.82743253 Z" id="Shape"></path>
                            <path d="M2.70138008,1.828125 C5.90482234,1.82674005 9.10802665,1.82581676 12.3114689,1.82858665 C12.5053934,2.56653054 12.9493973,3.23892045 13.555441,3.72249645 C13.9761263,4.06111505 14.4746193,4.30601917 15.0033312,4.44012784 C15.0033312,5.42551492 15.0035692,6.41090199 15.0030933,7.39628906 C14.3044892,7.57125355 13.6613261,7.94634233 13.1754442,8.46384944 C12.7623731,8.89964488 12.4632773,9.43538709 12.3102792,10.0085227 C9.10755076,10.0092152 5.90506028,10.0089844 2.7025698,10.0085227 C2.5231599,9.33544036 2.14030774,8.71521662 1.61230964,8.24479758 C1.16092957,7.8397017 0.604854061,7.54609375 0.00951776653,7.39628906 C0.00856598985,6.41067116 0.00927982234,5.42528409 0.00927982234,4.43966619 C0.696462563,4.26770242 1.33010787,3.90161576 1.81337246,3.39726563 C2.2376269,2.95662287 2.54671637,2.4123402 2.70138008,1.828125 L2.70138008,1.828125 Z M7.21303934,2.75395952 C6.97676078,2.78165838 6.74500317,2.84328835 6.52680837,2.93515625 C5.97882297,3.16459517 5.526967,3.57961647 5.21906726,4.07173295 C4.49476522,5.2145419 4.52117703,6.76613992 5.29544734,7.87986505 C5.60525063,8.33112571 6.042592,8.70644531 6.56131027,8.91487926 C7.04838198,9.11361864 7.60231599,9.15355118 8.11389594,9.0245206 C8.58669099,8.9074929 9.01689403,8.65081676 9.35620241,8.31289063 C9.64102153,8.02851563 9.86468906,7.68966619 10.0274429,7.32658025 C10.4131504,6.43998579 10.4141021,5.40243253 10.0298224,4.5151456 C9.77974303,3.95055043 9.37476205,3.43950639 8.83272525,3.11242897 C8.35540927,2.81951349 7.77458756,2.68540483 7.21303934,2.75395952 Z" id="Shape"></path>
                            <path d="M13.2891815,1.82697088 C13.8604854,1.82743253 14.4320273,1.82650924 15.0033312,1.82743253 C15.0030933,2.38094815 15.0033312,2.9346946 15.0033312,3.48821023 C14.2131187,3.22207031 13.5671002,2.59145952 13.2891815,1.82697088 Z" id="Shape"></path>
                            <path d="M7.29298858,3.66063565 C7.62063769,3.61193182 7.95994607,3.68164063 8.24881028,3.83629262 C8.60548858,4.02533735 8.88602475,4.33187145 9.07400063,4.67856889 C9.35001586,5.18776634 9.43377225,5.78513849 9.34478109,6.35158025 C9.26459391,6.85523793 9.03569163,7.34527699 8.65736041,7.7042081 C8.37325508,7.97565696 7.99444797,8.16516335 7.59256027,8.18778409 C7.25943846,8.20878906 6.92560279,8.10861151 6.64792195,7.93272372 C6.29695432,7.71113281 6.03212246,7.37666904 5.86389594,7.00758167 C5.61429251,6.45660512 5.56979695,5.82460937 5.71803617,5.2415483 C5.83058376,4.80621449 6.05972398,4.39280895 6.40283947,4.08789063 C6.64934962,3.86722301 6.95986675,3.70957031 7.29298858,3.66063565 Z" id="Shape"></path>
                            <path d="M0.00927982234,10.0087535 C0.00927982234,9.45431464 0.00856598985,8.89987571 0.00975571069,8.34520596 C0.798302665,8.61642401 1.44432107,9.24311082 1.7241434,10.0080611 C1.15236358,10.0099076 0.5808217,10.0085227 0.00927982234,10.0087535 Z" id="Shape"></path>
                            <path d="M13.2882297,10.0087535 C13.5685279,9.24564982 14.2121669,8.61296165 15.0030933,8.3484375 C15.0033312,8.9017223 15.0033312,9.45523791 15.0030933,10.0085227 C14.4315514,10.0089844 13.8600096,10.0089844 13.2882297,10.0087535 Z" id="Shape"></path>
                        </g>
                    </g>
                </g>
                <path d="M8.66546631,25.4545455 L8.66546631,20.3369141 L10.5812073,20.3369141 L10.5812073,19.6897195 L6.0081482,19.6897195 L6.0081482,20.3369141 L7.92388916,20.3369141 L7.92388916,25.4545455 L8.66546631,25.4545455 Z M12.4681091,25.4545455 L12.4681091,19.6897195 L11.726532,19.6897195 L11.726532,25.4545455 L12.4681091,25.4545455 Z M17.6673889,24.8073508 L14.7257995,24.8073508 L14.7257995,22.8258167 L17.5149536,22.8258167 L17.5149536,22.1866122 L14.7257995,22.1866122 L14.7257995,20.3369141 L17.6673889,20.3369141 L17.6673889,19.6897195 L13.9842224,19.6897195 L13.9842224,25.4545455 L17.6673889,25.4545455 L17.6673889,24.8073508 Z M15.4261779,18.2315341 L14.2149353,19.1623757 L15.1295471,19.1623757 L15.7969666,18.6230469 L15.8628846,18.6230469 L16.5303039,19.1623757 L17.4449158,19.1623757 L16.2336731,18.2315341 L15.4261779,18.2315341 Z M17.6179505,18.0517578 L16.7115784,17.0849609 L15.8216858,17.0849609 L16.8351745,18.0517578 L17.6179505,18.0517578 Z M19.7438049,25.4545455 L19.7438049,20.9841086 L19.8097229,20.9841086 L23.0355835,25.4545455 L23.7565612,25.4545455 L23.7565612,19.6897195 L23.0232239,19.6897195 L23.0232239,24.1761364 L22.9573059,24.1761364 L19.7314453,19.6897195 L19.0104675,19.6897195 L19.0104675,25.4545455 L19.7438049,25.4545455 Z M33.5124206,25.4545455 L33.5124206,19.6897195 L32.6513672,19.6897195 L30.6161499,24.4597834 L30.550232,24.4597834 L28.5150146,19.6897195 L27.6539612,19.6897195 L27.6539612,25.4545455 L28.3460998,25.4545455 L28.3460998,21.0520242 L28.3955383,21.0520242 L30.2700805,25.4145952 L30.8963013,25.4145952 L32.7708435,21.0520242 L32.820282,21.0520242 L32.820282,25.4545455 L33.5124206,25.4545455 Z M38.8929748,25.4545455 L39.6716308,25.4545455 L37.4798584,19.6897195 L36.746521,19.6897195 L34.5547485,25.4545455 L35.3334045,25.4545455 L35.9307862,23.8045987 L38.2955932,23.8045987 L38.3862305,24.054288 C38.4466555,24.2207484 38.5160061,24.4125078 38.594284,24.6295721 C38.672562,24.8466364 38.7419125,25.0383958 38.8023377,25.2048562 L38.8929748,25.4545455 Z M37.0802307,20.6205611 L37.1461487,20.6205611 L38.07724,23.1933594 L36.1491394,23.1933594 L36.2438964,22.9336825 C36.3070682,22.7605637 36.3846583,22.5461661 36.4766693,22.2904829 L36.7527008,21.5234375 C36.8447118,21.2677544 36.9223019,21.0533567 36.9854737,20.8802379 L37.0802307,20.6205611 Z M35.6135559,17.9718573 C35.6135559,18.3287483 35.7474504,18.6163874 36.0152436,18.8347834 C36.2830366,19.0531794 36.649015,19.1623757 37.1131897,19.1623757 C37.580111,19.1623757 37.946776,19.0531794 38.2131958,18.8347834 C38.4796156,18.6163874 38.6128235,18.3287483 38.6128235,17.9718573 L37.978363,17.9718573 C37.978363,18.1822631 37.9014595,18.3500526 37.7476502,18.4752308 C37.5938407,18.600409 37.3823561,18.6629972 37.1131897,18.6629972 C36.8467699,18.6629972 36.6359719,18.600409 36.4807892,18.4752308 C36.3256065,18.3500526 36.2480164,18.1822631 36.2480164,17.9718573 L35.6135559,17.9718573 Z M37.1131897,27.0605469 C37.2505195,27.0605469 37.3679347,27.0132728 37.4654389,26.9187234 C37.562943,26.8241739 37.6116943,26.7103167 37.6116943,26.5771485 C37.6116943,26.4439802 37.562943,26.330123 37.4654389,26.2355735 C37.3679347,26.141024 37.2505195,26.09375 37.1131897,26.09375 C36.9758599,26.09375 36.8584447,26.141024 36.7609405,26.2355735 C36.6634364,26.330123 36.6146851,26.4439802 36.6146851,26.5771485 C36.6146851,26.7103167 36.6634364,26.8241739 36.7609405,26.9187234 C36.8584447,27.0132728 36.9758599,27.0605469 37.1131897,27.0605469 Z M43.0004883,25.4545455 L43.0004883,20.3369141 L44.9162292,20.3369141 L44.9162292,19.6897195 L40.3431701,19.6897195 L40.3431701,20.3369141 L42.2589112,20.3369141 L42.2589112,25.4545455 L43.0004883,25.4545455 Z" id="TIỀN-MẶT" fill="#333333" fill-rule="nonzero"></path>
            </g>
            <g id="installment" transform="translate(56.000000, 0.000000)">
                <g id="Rectangle-14-Copy-8">
                    <g id="path-1-Clipped">
                        <mask id="mask-4" fill="white">
                            <use xlink:href="#path-3"></use>
                        </mask>
                        <g id="path-1"></g>
                        <rect id="path-1" stroke="#E4E4E4" stroke-width="2" fill="#F3F3F3" fill-rule="nonzero" mask="url(#mask-4)" x="0" y="0" width="50.625" height="30" rx="4"></rect>
                    </g>
                </g>
                <path d="M7.46612549,14.5454545 L7.46612549,8.29057174 L9.80758669,8.29057174 L9.80758669,7.49955611 L4.21829224,7.49955611 L4.21829224,8.29057174 L6.55975342,8.29057174 L6.55975342,14.5454545 L7.46612549,14.5454545 Z M12.1138,8.28080611 L13.8610839,8.28080611 C14.331057,8.28080611 14.6986376,8.39962003 14.9638367,8.63725142 C15.2290357,8.87488282 15.3616333,9.20528318 15.3616333,9.62846236 C15.3616333,10.0614073 15.2349103,10.394249 14.9814606,10.6269975 C14.7280108,10.8597461 14.3679832,10.9761186 13.9013672,10.9761186 L12.1138,10.9761186 L12.1138,8.28080611 Z M12.1138,11.7573686 L13.9013672,11.7573686 L15.4573059,14.5454545 L16.5197754,14.5454545 L14.8379516,11.6206498 C15.2944969,11.4806752 15.6520068,11.2316543 15.9104919,10.8735795 C16.1689771,10.5155048 16.2982177,10.0907044 16.2982177,9.59916545 C16.2982177,8.96439668 16.0875723,8.45577547 15.6662751,8.07328657 C15.2449777,7.69079768 14.6835362,7.49955611 13.9819336,7.49955611 L11.2074279,7.49955611 L11.2074279,14.5454545 L12.1138,14.5454545 L12.1138,11.7573686 Z M22.6679992,14.5454545 L23.6196899,14.5454545 L20.940857,7.49955611 L20.0445557,7.49955611 L17.3657227,14.5454545 L18.3174133,14.5454545 L19.0475464,12.528853 L21.9378662,12.528853 L22.048645,12.8340287 C22.1224979,13.0374803 22.2072596,13.271853 22.3029327,13.5371537 C22.3986058,13.8024545 22.4833675,14.0368272 22.5572205,14.2402787 L22.6679992,14.5454545 Z M20.4524231,8.63725142 L20.5329895,8.63725142 L21.67099,11.7817826 L19.3144226,11.7817826 L19.4302368,11.4643998 C19.5074467,11.2528103 19.6022791,10.9907686 19.7147369,10.6782671 L20.0521087,9.74076709 C20.1645666,9.42826545 20.259399,9.16622382 20.3366089,8.95463424 L20.4524231,8.63725142 Z M19.6165466,5.85404829 C19.7541816,5.78243335 19.9388111,5.74662642 20.1704407,5.74662642 C20.4994218,5.74662642 20.6639099,5.86544034 20.6639099,6.10307174 C20.6639099,6.34070313 20.4809588,6.51159985 20.1150513,6.61576705 L20.4826355,7.08939985 C20.7511915,7.00476402 20.9710685,6.86479146 21.1422729,6.66947798 C21.3134774,6.47416451 21.3990784,6.26583325 21.3990784,6.04447798 C21.3990784,5.77429434 21.2992106,5.56026654 21.099472,5.40238814 C20.8997335,5.24450975 20.6253069,5.16557174 20.2761841,5.16557174 C20.1586908,5.16557174 20.0386817,5.17452346 19.916153,5.1924272 C19.7936242,5.21033094 19.6937565,5.23555855 19.6165466,5.2681108 L19.6165466,5.85404829 Z M10.1312256,22.0685369 L10.1312256,21.2872869 L7.4533081,21.2872869 L7.4533081,21.9886364 L9.31182862,21.9886364 L9.31182862,22.1439985 C9.31182862,22.6855495 9.1294879,23.1235187 8.76480102,23.457919 C8.40011414,23.7923194 7.92175589,23.9595171 7.32971192,23.9595171 C6.66747715,23.9595171 6.14334299,23.7249965 5.7572937,23.2559482 C5.37124441,22.7868999 5.17822266,22.1484415 5.17822266,21.340554 C5.17822266,20.5445036 5.37277027,19.9097443 5.76187133,19.4362571 C6.1509724,18.9627699 6.67205484,18.7260298 7.32513427,18.7260298 C7.81646974,18.7260298 8.2254012,18.8384814 8.55194092,19.0633878 C8.87848064,19.2882942 9.11193777,19.616771 9.25231933,20.0488281 L10.0900268,20.0488281 C9.97100775,19.4125796 9.66354619,18.9102469 9.16763305,18.5418146 C8.67171993,18.1733824 8.05755982,17.989169 7.32513427,17.989169 C6.42180945,17.989169 5.69702422,18.2947116 5.15075683,18.9058061 C4.60448946,19.5169005 4.33135987,20.3284751 4.33135987,21.340554 C4.33135987,22.3644701 4.60220066,23.1797436 5.14389038,23.7863992 C5.6855801,24.3930546 6.41265412,24.6963778 7.32513427,24.6963778 C8.17047542,24.6963778 8.84948474,24.4559387 9.36218261,23.9750533 C9.87488053,23.4941678 10.1312256,22.8586687 10.1312256,22.0685369 Z M14.3655396,17.989169 C13.431697,17.989169 12.692416,18.2902728 12.1476745,18.8924894 C11.602933,19.4947059 11.3305664,20.3107193 11.3305664,21.340554 C11.3305664,22.3644701 11.5998814,23.1797436 12.1385193,23.7863992 C12.6771572,24.3930546 13.4194899,24.6963778 14.3655396,24.6963778 C15.3085374,24.6963778 16.0478183,24.3930546 16.5834045,23.7863992 C17.1189907,23.1797436 17.3867797,22.3644701 17.3867797,21.340554 C17.3867797,20.3136785 17.1182278,19.498405 16.5811157,18.8947088 C16.0440037,18.2910126 15.3054857,17.989169 14.3655396,17.989169 Z M14.3655396,18.7260298 C15.0399814,18.7260298 15.5709819,18.9612903 15.9585571,19.4318182 C16.3461323,19.9023461 16.539917,20.538585 16.539917,21.340554 C16.539917,22.1336451 16.3468953,22.7684044 15.9608459,23.2448508 C15.5747966,23.7212974 15.0430332,23.959517 14.3655396,23.959517 C13.6788907,23.959517 13.1425495,23.7212974 12.7565002,23.2448508 C12.370451,22.7684044 12.1774292,22.1336451 12.1774292,21.340554 C12.1774292,20.538585 12.3742657,19.9023461 12.7679443,19.4318182 C13.1616231,18.9612903 13.6941495,18.7260298 14.3655396,18.7260298 Z M14.8187256,17.5541548 L16.338501,16.2313565 L15.3039551,16.2313565 L13.8848877,17.5541548 L14.8187256,17.5541548 Z M18.8150024,18.1400924 L18.8150024,24.5454545 L19.6389771,24.5454545 L19.6389771,22.2594105 L21.3006592,22.2594105 C21.9201691,22.2594105 22.4290447,22.067799 22.827301,21.6845703 C23.2255574,21.3013416 23.4246826,20.8108458 23.4246826,20.2130682 C23.4246826,19.6034534 23.2286092,19.1055595 22.8364563,18.7193715 C22.4443035,18.3331835 21.9354279,18.1400924 21.3098145,18.1400924 L18.8150024,18.1400924 Z M19.6389771,18.8503196 L21.0946656,18.8503196 C21.5737939,18.8503196 21.9407641,18.96721 22.1955872,19.2009944 C22.4504102,19.4347786 22.5778198,19.7721332 22.5778198,20.2130682 C22.5778198,20.6362474 22.4481214,20.9647242 22.1887207,21.1985085 C21.92932,21.4322928 21.5646386,21.5491833 21.0946656,21.5491833 L19.6389771,21.5491833 L19.6389771,18.8503196 Z" id="TRẢ-GÓP" fill="#333333" fill-rule="nonzero"></path>
                <path d="M25.9275,15.1272727 C25.9275,12.3999864 26.5462438,10.229099 27.78375,8.61454545 C29.0212562,6.99999193 30.6299901,6.19272727 32.61,6.19272727 C34.61251,6.19272727 36.2212439,6.99999193 37.43625,8.61454545 C38.6512561,10.229099 39.2699999,12.3999864 39.2925,15.1272727 C39.2925,17.8327408 38.6793811,20.0090826 37.453125,21.6563636 C36.2268689,23.3036446 34.61251,24.1272727 32.61,24.1272727 C30.5174895,24.1272727 28.8806309,23.2763722 27.699375,21.5745455 C26.5181191,19.8727187 25.9275,17.7236494 25.9275,15.1272727 Z M35.985,15.16 C35.985,10.8617967 34.8600112,8.71272727 32.61,8.71272727 C30.3599887,8.71272727 29.235,10.8617967 29.235,15.16 C29.235,19.4582033 30.3599887,21.6072727 32.61,21.6072727 C34.8600112,21.6072727 35.985,19.4582033 35.985,15.16 Z" id="0" fill="#D0011B" fill-rule="nonzero"></path>
                <path d="M42.423706,9.19788709 C42.423706,8.76109512 42.2959913,8.4088703 42.0405578,8.14120206 C41.7851244,7.87353382 41.4486715,7.73970171 41.031189,7.73970171 C40.6137064,7.73970171 40.2772535,7.87419965 40.0218201,8.14319957 C39.7663867,8.4121995 39.6386719,8.76375848 39.6386719,9.19788709 C39.6386719,9.63201564 39.7670733,9.98357464 40.02388,10.2525745 C40.2806867,10.5215745 40.616453,10.6560725 41.031189,10.6560725 C41.4486715,10.6560725 41.7851244,10.5215745 42.0405578,10.2525745 C42.2959913,9.98357464 42.423706,9.63201564 42.423706,9.19788709 Z M41.031189,9.90900209 C40.8856193,9.90900209 40.7702641,9.84441645 40.6851196,9.71524327 C40.5999752,9.58607 40.5574036,9.412288 40.5574036,9.193892 C40.5574036,8.9728327 40.5999752,8.7990507 40.6851196,8.67254084 C40.7702641,8.54603097 40.8856193,8.48277699 41.031189,8.48277699 C41.1795052,8.48277699 41.2948604,8.54536515 41.3772583,8.67054333 C41.4596562,8.79572151 41.5008545,8.97016934 41.5008545,9.193892 C41.5008545,9.412288 41.4589695,9.58607 41.3751983,9.71524327 C41.2914272,9.84441645 41.1767586,9.90900209 41.031189,9.90900209 Z M41.4555359,13.6363636 L43.202362,10.9157493 L45.4847717,7.87153765 L44.3270874,7.87153765 L42.5390625,10.6161222 L40.2937317,13.6363636 L41.4555359,13.6363636 Z M46.1109924,12.3060192 C46.1109924,11.8718905 45.9832777,11.5209975 45.7278443,11.2533292 C45.4724108,10.9856609 45.1359579,10.8518288 44.7184753,10.8518288 C44.3037394,10.8518288 43.9686597,10.9856609 43.7132263,11.2533292 C43.4577929,11.5209975 43.3300781,11.8718905 43.3300781,12.3060192 C43.3300781,12.7428111 43.4577929,13.0957018 43.7132263,13.3647017 C43.9686597,13.6337016 44.3037394,13.7681995 44.7184753,13.7681995 C45.1359579,13.7681995 45.4724108,13.6337016 45.7278443,13.3647017 C45.9832777,13.0957018 46.1109924,12.7428111 46.1109924,12.3060192 Z M44.7184753,13.0211293 C44.5729057,13.0211293 44.4575505,12.9565436 44.372406,12.8273704 C44.2872615,12.6981972 44.2446899,12.5244152 44.2446899,12.3060192 C44.2446899,12.0849598 44.2872615,11.9111778 44.372406,11.784668 C44.4575505,11.6581581 44.5729057,11.5949041 44.7184753,11.5949041 C44.8667915,11.5949041 44.9828334,11.6574923 45.0666046,11.7826705 C45.1503757,11.9078486 45.1922607,12.0822965 45.1922607,12.3060192 C45.1922607,12.5244152 45.1496891,12.6981972 45.0645447,12.8273704 C44.9794002,12.9565436 44.8640449,13.0211293 44.7184753,13.0211293 Z" id="%" fill="#D0011B" fill-rule="nonzero"></path>
            </g>
            <g id="internet-banking" transform="translate(231.000000, 0.000000)">
                <g id="Rectangle-14-Copy-6">
                    <g id="path-1-Clipped">
                        <mask id="mask-6" fill="white">
                            <use xlink:href="#path-5"></use>
                        </mask>
                        <g id="path-1"></g>
                        <rect id="path-1" stroke="#E4E4E4" stroke-width="2" fill="#F3F3F3" fill-rule="nonzero" mask="url(#mask-6)" x="0" y="0" width="50.625" height="30" rx="4"></rect>
                    </g>
                </g>
                <rect id="Rectangle-14" fill="#D4D4D4" fill-rule="nonzero" x="0.9375" y="5.45454545" width="48.75" height="3.63636364"></rect>
                <g id="INTERNET-BANKING-Copy-3" transform="translate(3.750000, 8.181818)" fill-rule="nonzero">
                    <g id="INTERNET">
                        <use fill="#000000" xlink:href="#path-7"></use>
                        <use fill="#333333" xlink:href="#path-7"></use>
                    </g>
                    <g id="BANKING">
                        <use fill="#000000" xlink:href="#path-8"></use>
                        <use fill="#333333" xlink:href="#path-8"></use>
                    </g>
                </g>
            </g>
            <g id="jcb" transform="translate(-0.000000, 0.000000)">
                <g id="Rectangle-14-Copy-5">
                    <g id="path-1-Clipped">
                        <mask id="mask-10" fill="white">
                            <use xlink:href="#path-9"></use>
                        </mask>
                        <g id="path-1"></g>
                        <rect id="path-1" stroke="#E4E4E4" stroke-width="2" fill="#F2F2F2" fill-rule="nonzero" mask="url(#mask-10)" x="0" y="0" width="49.0909091" height="30" rx="4"></rect>
                    </g>
                </g>
                <g id="Group" transform="translate(9.090909, 3.636364)" fill-rule="nonzero">
                    <g id="Shape">
                        <g id="Group" transform="translate(19.934963, 0.104715)">
                            <path d="M1.76705185,13.0565497 L3.82861234,13.0565497 C3.88751406,13.0565497 4.02495143,13.0369158 4.08385315,13.0369158 C4.47653135,12.9583802 4.8103078,12.6049698 4.8103078,12.1141221 C4.8103078,11.6429083 4.47653135,11.2894979 4.08385315,11.1913284 C4.02495143,11.1716945 3.90714797,11.1716945 3.82861234,11.1716945 L1.76705185,11.1716945 L1.76705185,13.0565497 L1.76705185,13.0565497 Z" id="Path" fill="url(#linearGradient-11)"></path>
                            <path d="M3.59300542,0.0392678188 C1.62961448,0.0392678188 0.0196339094,1.62961448 0.0196339094,3.61263933 L0.0196339094,7.32344821 L5.06554863,7.32344821 C5.18335208,7.32344821 5.32078945,7.32344821 5.41895899,7.34308212 C6.55772574,7.40198385 7.40198385,7.99100113 7.40198385,9.01196441 C7.40198385,9.81695473 6.83260047,10.5041415 5.77236936,10.6415789 L5.77236936,10.6808467 C6.93077002,10.7593824 7.81429594,11.4073014 7.81429594,12.4086307 C7.81429594,13.4884957 6.83260047,14.1953165 5.53676245,14.1953165 L0,14.1953165 L0,21.459863 L5.24225381,21.459863 C7.20564475,21.459863 8.81562532,19.8695163 8.81562532,17.8864915 L8.81562532,0.0392678188 L3.59300542,0.0392678188 L3.59300542,0.0392678188 Z" id="Path" fill="url(#linearGradient-12)"></path>
                            <path d="M4.55506698,9.24757136 C4.55506698,8.7763575 4.22129052,8.46221495 3.82861234,8.40331322 C3.78934452,8.40331322 3.69117496,8.38367931 3.63227324,8.38367931 L1.76705185,8.38367931 L1.76705185,10.1114634 L3.63227324,10.1114634 C3.69117496,10.1114634 3.80897843,10.1114634 3.82861234,10.0918295 C4.22129052,10.0329277 4.55506698,9.71878518 4.55506698,9.24757136 L4.55506698,9.24757136 Z" id="Path" fill="url(#linearGradient-13)"></path>
                        </g>
                        <path d="M3.77625524,0.143982002 C1.8128643,0.143982002 0.20288373,1.73432866 0.20288373,3.71735351 L0.20288373,12.5329788 C1.20421311,13.0238265 2.24481031,13.3379691 3.28540751,13.3379691 C4.5223438,13.3379691 5.18989672,12.5918805 5.18989672,11.5709173 L5.18989672,7.40852848 L8.25278658,7.40852848 L8.25278658,11.5512834 C8.25278658,13.1612639 7.2514572,14.4767358 3.85479088,14.4767358 C1.79323039,14.4767358 0.183249821,14.0251559 0.183249821,14.0251559 L0.183249821,21.5449433 L5.42550363,21.5449433 C7.38889457,21.5449433 8.99887514,19.9545965 8.99887514,17.9715717 L8.99887514,0.143982002 L3.77625524,0.143982002 L3.77625524,0.143982002 Z" id="Path" fill="url(#linearGradient-14)"></path>
                        <path d="M13.6521116,0.143982002 C11.6887207,0.143982002 10.0787402,1.73432866 10.0787402,3.71735351 L10.0787402,8.39022395 C10.9819,7.62450148 12.5526127,7.13365375 15.0853871,7.2514572 C16.4401268,7.31035894 17.8930361,7.68340321 17.8930361,7.68340321 L17.8930361,9.19521427 C17.1665815,8.82216995 16.3026895,8.4883935 15.1835566,8.40985785 C13.2594335,8.27242049 12.1010328,9.21484818 12.1010328,10.8640965 C12.1010328,12.5329788 13.2594335,13.4754065 15.1835566,13.3183352 C16.3026895,13.2397995 17.1665815,12.8863892 17.8930361,12.5329788 L17.8930361,14.0447898 C17.8930361,14.0447898 16.4597607,14.4178341 15.0853871,14.4767358 C12.5526127,14.5945394 10.9819,14.1036915 10.0787402,13.3379691 L10.0787402,21.5842111 L15.320994,21.5842111 C17.2843849,21.5842111 18.8943655,19.9938644 18.8943655,18.0108395 L18.8943655,0.143982002 L13.6521116,0.143982002 L13.6521116,0.143982002 Z" id="Path" fill="url(#linearGradient-15)"></path>
                    </g>
                </g>
            </g>
            <g id="mastercard" transform="translate(289.000000, 0.000000)">
                <g id="Rectangle-14-Copy-3">
                    <g id="path-1-Clipped">
                        <mask id="mask-17" fill="white">
                            <use xlink:href="#path-16"></use>
                        </mask>
                        <g id="path-1"></g>
                        <rect id="path-1" stroke="#E4E4E4" stroke-width="2" fill="#F2F2F2" fill-rule="nonzero" mask="url(#mask-17)" x="0" y="0" width="50.625" height="30" rx="4"></rect>
                    </g>
                </g>
                <g id="Mastercard-logo" transform="translate(9.375000, 5.454545)" fill-rule="nonzero">
                    <g id="g3125">
                        <g id="g3115">
                            <g id="g3110">
                                <path d="M31.0004812,9.31288827 C31.0004812,14.4551403 26.709719,18.6237599 21.4167946,18.6237599 C16.1238702,18.6237599 11.8331067,14.4551403 11.8331067,9.31288827 C11.8331067,4.1706354 16.1238702,0.0020160805 21.4167946,0.0020160805 C26.709719,0.0020160805 31.0004812,4.1706354 31.0004812,9.31288827 L31.0004812,9.31288827 Z" id="path2997" fill="#F79F1A"></path>
                                <path d="M19.177549,9.31288827 C19.177549,14.4551403 14.8867868,18.6237599 9.59386247,18.6237599 C4.30093809,18.6237599 0.0101746256,14.4551403 0.0101746256,9.31288827 C0.0101746256,4.1706354 4.30093809,0.0020160805 9.59386247,0.0020160805 C14.8867868,0.0020160805 19.177549,4.1706354 19.177549,9.31288827 L19.177549,9.31288827 Z" id="path2995" fill="#EA001B"></path>
                                <path d="M15.5053479,1.98330168 C13.2692313,3.68781951 11.8338517,6.33653703 11.8338517,9.31201582 C11.8338517,12.2874946 13.2692313,14.9382337 15.5053479,16.6427517 C17.7414645,14.9382337 19.1768442,12.2874946 19.1768442,9.31201582 C19.1768442,6.33653703 17.7414645,3.68781951 15.5053479,1.98330168 L15.5053479,1.98330168 Z" id="path2999" fill="#FF5F01"></path>
                            </g>
                            <g id="g3043" transform="translate(30.191285, 13.895473)" fill="#F79F1A">
                                <g id="text3045">
                                    <path d="M0.840856772,0.528158018 L0.840856772,0.0281580182 L0.745413857,0.0281580182 L0.635623311,0.372014668 L0.525832764,0.0281580182 L0.43038985,0.0281580182 L0.43038985,0.528158018 L0.497761319,0.528158018 L0.497761319,0.151024909 L0.600689958,0.476110235 L0.670556672,0.476110235 L0.773485303,0.150171669 L0.773485303,0.528158018 L0.840856772,0.528158018 Z M0.236384967,0.528158018 L0.236384967,0.113482247 L0.358651709,0.113482247 L0.358651709,0.0290112591 L0.0473705651,0.0290112591 L0.0473705651,0.113482247 L0.169637306,0.113482247 L0.169637306,0.528158018 L0.236384967,0.528158018 Z" id="path3057"></path>
                                </g>
                            </g>
                        </g>
                    </g>
                </g>
            </g>
            <g id="visa" transform="translate(115.000000, 0.000000)">
                <g id="Rectangle-14-Copy-2">
                    <g id="path-1-Clipped">
                        <mask id="mask-19" fill="white">
                            <use xlink:href="#path-18"></use>
                        </mask>
                        <g id="path-1"></g>
                        <rect id="path-1" stroke="#E4E4E4" stroke-width="2" fill="#F3F3F3" fill-rule="nonzero" mask="url(#mask-19)" x="0" y="0" width="50.625" height="30" rx="4"></rect>
                    </g>
                </g>
                <g id="Visa_2014_logo_detail" transform="translate(6.562500, 9.090909)" fill-rule="nonzero">
                    <g id="#243881ff">
                        <path d="M22.7092323,0.18972332 C23.6359132,-0.0149068323 24.6054942,-0.0486166008 25.5504265,0.0628458498 C26.159872,0.135855449 26.7578399,0.277978544 27.3349222,0.468210051 C27.1574887,1.21304348 26.9808078,1.95787691 26.8022453,2.70237155 C26.0742599,2.40152456 25.2802308,2.22687747 24.4790517,2.2055336 C24.0763924,2.1972332 23.6643251,2.21976285 23.2836803,2.34748729 C23.0543151,2.42490118 22.8349223,2.54551101 22.6870296,2.72473179 C22.5628449,2.87346132 22.4998118,3.06962168 22.5476041,3.25358555 C22.5895635,3.41942405 22.7116784,3.55815924 22.8490342,3.67063805 C23.0934521,3.86662903 23.3815228,4.01095426 23.6669593,4.15239977 C24.3082037,4.46222473 24.9712745,4.74782609 25.5460988,5.15505365 C26.0370045,5.49621683 26.4549047,5.9471485 26.6426869,6.4863354 C26.7960361,6.91253529 26.802998,7.37092038 26.7316859,7.81118013 C26.6464501,8.33613777 26.4157677,8.84246188 26.0571375,9.26408809 C25.6358505,9.76533036 25.0516181,10.1410503 24.4175239,10.395144 C23.6844581,10.6900621 22.8853487,10.8321852 22.0871801,10.879616 C21.1872177,10.9295878 20.2816106,10.8540373 19.3995233,10.6898927 C18.968264,10.6045172 18.5385098,10.500847 18.135286,10.3361943 C18.3183643,9.56696782 18.5005017,8.79774139 18.6832037,8.02851496 C19.0540642,8.18469791 19.427559,8.33884811 19.8191169,8.44844721 C20.267875,8.57667985 20.7345083,8.65223038 21.2041521,8.68001129 C21.633718,8.70254094 22.0713748,8.70965556 22.4920973,8.61581027 C22.8236327,8.54297007 23.1589313,8.41727837 23.3879202,8.1809712 C23.6090065,7.95686053 23.6710988,7.61468097 23.5311089,7.34144551 C23.4176493,7.12783738 23.2093578,6.97216262 22.9986202,6.83850932 C22.6793151,6.63997742 22.3312218,6.48362507 21.9842574,6.32896668 C21.2974787,6.02236025 20.6221777,5.65968379 20.1058705,5.14099379 C19.723156,4.75917561 19.4529604,4.27622812 19.3987707,3.76041785 C19.3436403,3.21276115 19.4559709,2.651214 19.7237205,2.1565782 C19.9242975,1.78339921 20.2133091,1.451214 20.5557577,1.17476002 C21.1620045,0.683342745 21.9229177,0.367927725 22.7092323,0.18972332 Z" id="Shape" fill="#243881"></path>
                        <path d="M0.0720647265,0.193280633 C1.7728299,0.192094862 3.47340693,0.192941841 5.17398395,0.192603049 C5.3203713,0.191925465 5.46751129,0.203783174 5.60863021,0.240203275 C5.90930757,0.313551665 6.17875063,0.483455675 6.359571,0.711970638 C6.49504516,0.881027668 6.58310336,1.07888199 6.62543903,1.28334275 C6.90334922,2.61259175 7.18107125,3.94184076 7.45898143,5.27108978 C7.60612143,5.96815358 7.7474285,6.66640316 7.89870798,7.36278938 C8.9505143,4.97363072 10.0004391,2.58362507 11.0490467,0.193280633 C12.1095083,0.191247883 13.1699699,0.192433654 14.2304315,0.192603049 C12.5943929,3.70587239 10.9591069,7.21964992 9.3223156,10.7327498 C8.25677371,10.7327498 7.19123182,10.7303783 6.12568991,10.7339356 C5.32752132,7.96990401 4.53706723,5.20417843 3.74209734,2.43963862 C3.67059709,2.20214568 3.61490215,1.95296443 3.46023582,1.74545455 C3.29992474,1.53150763 3.03556196,1.41276115 2.78625188,1.3012987 C2.17341947,1.03856578 1.52427246,0.852060983 0.871174109,0.689779785 C0.582915203,0.619988707 0.29296287,0.555957086 0.00131710988,0.498193111 C0.0238961364,0.396386223 0.049862017,0.295256917 0.0720647265,0.193280633 Z" id="Shape" fill="#192164"></path>
                        <path d="M15.3793277,0.829531338 C15.4308831,0.616770186 15.4786754,0.403162055 15.5326769,0.190909091 C16.5412067,0.193958215 17.5499247,0.190739695 18.5584546,0.192433654 C17.7232188,3.7055336 16.8885474,7.21897234 16.0538761,10.7322416 C15.0444054,10.7330886 14.0349348,10.7322416 13.0254641,10.7326321 C13.8106498,7.43156409 14.5947065,4.13054771 15.3793277,0.829531338 Z" id="Shape" fill="#28327B"></path>
                        <path d="M31.1662067,0.955731227 C31.3675364,0.513438735 31.8695434,0.199717674 32.401844,0.193280633 C33.2801681,0.189045737 34.1584922,0.192094862 35.0366282,0.191586675 C35.8522956,3.7053642 36.6668339,7.21931113 37.4817487,10.7332581 C36.5479178,10.7339356 35.6140868,10.7330886 34.6804441,10.7334275 C34.5562594,10.2091474 34.4354617,9.68402036 34.3125941,9.15940145 C33.0182513,9.15872391 31.7240968,9.15957091 30.4299423,9.15872391 C30.2184521,9.68283455 30.0065856,10.2069453 29.7979178,10.7319029 C28.7380206,10.7344438 27.6779353,10.7330886 26.6180381,10.7324111 C28.1338434,7.47340485 29.6492724,4.21422925 31.1662067,0.955731227 L31.1662067,0.955731227 Z M31.3011164,6.99621683 C32.1378575,6.99689441 32.9747868,6.99638622 33.8115278,6.99638622 C33.5057702,5.67899492 33.2009533,4.36160362 32.8951957,3.04421231 C32.3610136,4.36058724 31.8324761,5.67899492 31.3011164,6.99621683 Z" id="Shape" fill="#344490"></path>
                    </g>
                </g>
            </g>
        </g>
    </g>
</svg>