<?xml version="1.0" encoding="UTF-8"?>
<svg width="75px" height="12px" viewBox="0 0 75 12" version="1.1" xmlns="http://www.w3.org/2000/svg" xmlns:xlink="http://www.w3.org/1999/xlink">
    <!-- Generator: Sketch 54.1 (76490) - https://sketchapp.com -->
    <title>logocty</title>
    <desc>Created with Sketch.</desc>
    <g id="Page-1" stroke="none" stroke-width="1" fill="none" fill-rule="evenodd">
        <g id="logocty" fill="#FFFFFF">
            <polygon id="Path-Copy-5" points="7.94627568 9.07801798 7.94627568 11.7829623 4.4408921e-14 11.7829623 4.4408921e-14 0.200663527 3.40325342 0.200663527 3.40325342 9.07801798"></polygon>
            <path d="M14.3032962,2.48689958e-14 C17.8831336,2.48689958e-14 20.1385916,2.29559075 20.1385916,5.9958262 C20.1385916,9.69606164 17.8831336,11.9836259 14.3032962,11.9836259 C10.7154324,11.9836259 8.46800086,9.69606164 8.46800086,5.9958262 C8.46800086,2.29559075 10.7234589,2.48689958e-14 14.3032962,2.48689958e-14 Z M14.3032962,2.71297089 C12.8825985,2.71297089 11.9354666,3.98919092 11.9354666,5.9958262 C11.9354666,7.99443493 12.8745719,9.27065497 14.3032962,9.27065497 C15.7320205,9.27065497 16.6711259,7.99443493 16.6711259,5.9958262 C16.6711259,3.98919092 15.723994,2.71297089 14.3032962,2.71297089 Z" id="Combined-Shape-Copy-4"></path>
            <polygon id="Path-Copy-6" points="28.4300086 11.7829623 24.015411 11.7829623 20.499786 0.200663527 24.2523545 0.200663527 26.270869 8.55629281 26.3350813 8.55629281 28.3535959 0.200663527 31.9456336 0.200663527"></polygon>
            <path d="M38.5203183,9.47934503 L35.051905,9.47934503 L34.4499144,11.7829623 L30.9824486,11.7829623 L34.7629495,0.200663527 L35.8407534,0.200663527 L36.7028085,3.18575052 L35.6699486,7.07940925 L37.8272475,7.07940925 L38.5203183,9.47934503 Z M39.0276113,0.200663527 L39.0330693,0.200663527 L39.8134559,2.5915294 L39.0276113,0.200663527 Z M42.6578284,11.3058169 L42.8135702,11.7829623 L42.5303938,11.7829623 L42.6578284,11.3058169 Z" id="Combined-Shape"></path>
            <polygon id="Path-Copy-7" fill-rule="nonzero" points="43.1879281 11.7829623 39.8431079 11.7829623 36.4982877 0.200663527 39.520762 0.200663527 41.3307282 7.07940925 43.6293878 0.200663527 46.2620933 0.200663527 48.3182182 7.07940925 50.3707192 0.200663527 53.3931935 0.200663527 49.9141695 11.7829623 46.7035531 11.7829623 44.958249 5.15445625"></polygon>
            <polygon id="Path-Copy-8" fill-rule="nonzero" points="62.8523116 9.07801798 62.8523116 11.7829623 54.6812928 11.7829623 54.6812928 0.200663527 62.8523116 0.200663527 62.8523116 2.90560788 58.0845462 2.90560788 58.0845462 4.77579195 62.5553296 4.77579195 62.5553296 7.21586045 58.0845462 7.21586045 58.0845462 9.07801798"></polygon>
            <path d="M70.3250214,11.7829623 L64.4415668,11.7829623 L64.4415668,0.200663527 L70.1323844,0.200663527 C72.500214,0.200663527 73.8888057,1.28424658 73.8888057,3.09021832 C73.8888057,4.42262414 72.8774615,5.42594178 71.5370291,5.59449914 L71.5370291,5.65871147 C73.1022046,5.69884418 74.4105308,6.87874572 74.4105308,8.41181507 C74.4105308,10.44253 72.8052226,11.7829623 70.3250214,11.7829623 Z M67.8448202,2.53638699 L67.8448202,4.84000428 L69.1611729,4.84000428 C70.0360659,4.84000428 70.5818707,4.38249144 70.5818707,3.68418236 C70.5818707,2.96982021 70.0681721,2.53638699 69.2093322,2.53638699 L67.8448202,2.53638699 Z M67.8448202,9.44723887 L69.2976241,9.44723887 C70.349101,9.44723887 70.9510916,8.97367295 70.9510916,8.09877997 C70.9510916,7.27204623 70.3410745,6.79045377 69.3217038,6.79045377 L67.8448202,6.79045377 L67.8448202,9.44723887 Z" id="Combined-Shape-Copy-6" fill-rule="nonzero"></path>
        </g>
    </g>
</svg>